<?xml version="1.0" standalone="no"?>
<!DOCTYPE svg PUBLIC "-//W3C//DTD SVG 20010904//EN"
 "http://www.w3.org/TR/2001/REC-SVG-20010904/DTD/svg10.dtd">
<svg id="design_freepik" version="1.0" xmlns="http://www.w3.org/2000/svg"
 width="1000.000000pt" height="1321.000000pt" viewBox="0 0 1000.000000 1321.000000"
 preserveAspectRatio="xMidYMid meet">
<metadata>
Created by potrace 1.16, written by Peter Selinger 2001-2019
</metadata>
<g transform="translate(0.000000,1321.000000) scale(0.100000,-0.100000)"
fill="#000000" stroke="none">
<path d="M0 6770 c0 -5718 2 -6440 15 -6440 11 0 15 11 14 43 0 23 2 2913 6
6421 5 5914 6 6381 22 6398 15 17 14 18 -20 18 l-37 0 0 -6440z"/>
<path d="M5378 13153 c12 -2 22 -6 22 -8 0 -5 -36 -65 -140 -235 -46 -74 -88
-144 -94 -155 -6 -11 -41 -65 -77 -120 -36 -55 -94 -145 -128 -200 -34 -55
-66 -107 -71 -115 -22 -35 -80 -138 -185 -325 -125 -222 -202 -352 -274 -459
-55 -81 -142 -230 -197 -337 -35 -67 -69 -125 -173 -292 -52 -84 -124 -210
-172 -302 -23 -44 -42 -81 -43 -82 -1 -1 -31 13 -66 31 -149 74 -376 138 -612
171 l-47 6 -6 52 c-3 29 -7 573 -8 1209 l-2 1158 -30 0 -30 0 3 -1210 2 -1210
-46 0 c-87 0 -387 -50 -701 -117 -17 -4 -26 4 -47 40 -29 48 -95 199 -127 287
-11 30 -25 64 -30 75 -5 11 -33 83 -63 160 -68 179 -151 385 -183 455 -14 30
-41 93 -60 139 -18 46 -45 108 -58 138 -14 29 -25 56 -25 59 0 9 -110 264
-156 362 -24 52 -44 96 -44 98 0 3 -25 58 -56 122 -31 64 -79 167 -106 227
-27 61 -53 114 -59 119 -5 6 -9 15 -9 22 0 7 -24 62 -52 123 -50 106 -54 111
-84 111 l-31 0 36 -72 c20 -40 47 -98 60 -128 32 -73 91 -201 192 -418 22 -45
39 -85 39 -88 0 -4 14 -33 30 -66 17 -32 66 -145 110 -251 95 -226 141 -334
186 -437 18 -41 53 -127 79 -190 25 -63 50 -124 55 -135 5 -11 39 -96 75 -190
136 -353 169 -432 207 -509 22 -43 38 -79 36 -81 -2 -1 -25 -8 -53 -14 -65
-16 -282 -103 -370 -149 -66 -34 -264 -157 -275 -171 -8 -10 -88 -71 -94 -71
-4 0 -63 65 -216 240 -115 131 -267 307 -325 375 -97 116 -482 531 -672 725
l-143 145 0 -40 c0 -38 7 -47 123 -165 194 -199 550 -584 651 -706 28 -33 123
-143 211 -245 88 -101 197 -228 243 -281 l82 -97 -57 -62 c-92 -97 -205 -267
-291 -437 -43 -86 -81 -164 -84 -172 -4 -12 -8 -12 -31 3 -14 9 -50 26 -79 38
-61 23 -369 177 -599 297 -86 45 -159 82 -162 82 -12 0 -7 -47 6 -58 26 -20
378 -207 606 -321 108 -55 202 -105 209 -113 9 -12 6 -32 -14 -94 -61 -186
-94 -366 -94 -514 l0 -93 -47 7 c-46 7 -223 25 -453 47 -107 10 -161 17 -192
26 -14 3 -18 -2 -18 -25 0 -29 1 -30 78 -40 42 -6 140 -18 217 -27 298 -32
407 -48 419 -60 6 -7 18 -60 24 -118 7 -58 20 -129 28 -157 8 -29 13 -54 11
-57 -3 -2 -39 -13 -81 -23 -42 -11 -165 -43 -274 -71 -108 -28 -246 -64 -305
-79 -59 -15 -110 -30 -113 -32 -3 -3 -3 -48 -2 -100 l3 -95 150 64 c138 59
463 173 595 209 380 104 581 135 917 141 l251 5 4 -23 c7 -50 -25 -187 -74
-313 -140 -361 -161 -449 -162 -682 l-1 -151 -60 -23 c-33 -12 -139 -51 -235
-85 -96 -34 -222 -80 -280 -102 -131 -50 -301 -94 -495 -128 -82 -15 -166 -30
-185 -35 -90 -22 -265 -49 -350 -54 -25 -2 -53 -4 -62 -4 -16 -2 -18 -14 -18
-112 0 -60 1 -110 3 -110 1 0 27 9 57 21 30 11 116 36 190 55 133 35 329 97
485 156 109 40 333 128 370 144 53 23 167 64 288 105 64 21 130 45 145 53 15
7 43 17 62 21 19 4 46 12 60 18 14 6 44 16 66 22 l42 11 5 -170 c4 -138 9
-183 26 -235 26 -77 66 -159 91 -186 10 -11 23 -32 29 -46 l10 -27 -132 -31
c-154 -37 -289 -76 -332 -96 -34 -15 -234 -72 -305 -86 -68 -14 -492 -67 -595
-74 -101 -7 -495 -52 -537 -61 l-28 -6 0 -119 c0 -65 2 -119 5 -119 2 0 22 6
42 14 39 15 161 42 315 71 48 9 165 39 260 66 152 44 291 84 558 159 116 32
197 59 291 96 143 56 450 136 465 121 8 -8 -8 -96 -41 -222 -38 -145 -54 -221
-76 -365 -12 -74 -23 -147 -26 -161 l-5 -26 -236 -1 c-264 -2 -357 -6 -547
-27 -71 -8 -175 -19 -230 -24 -196 -20 -551 -93 -700 -144 l-70 -24 -1 -106
c-1 -59 3 -107 7 -107 5 0 32 11 61 24 200 91 751 253 1057 310 98 19 351 36
528 36 l123 0 -5 -27 c-33 -214 27 -801 109 -1068 9 -27 16 -51 16 -53 0 -1
-19 0 -42 2 -24 3 -185 6 -358 7 -342 1 -533 -15 -805 -66 -71 -13 -209 -38
-305 -54 -156 -27 -366 -74 -377 -85 -2 -2 -3 -41 -1 -88 l3 -84 150 47 c545
172 500 159 725 204 369 73 418 78 690 70 135 -3 268 -10 295 -13 l50 -7 34
-70 c19 -38 58 -114 88 -168 29 -54 53 -104 53 -112 0 -15 9 -18 60 -19 20 -1
26 -7 28 -31 7 -72 66 -355 88 -417 17 -50 20 -70 11 -73 -7 -2 -48 -11 -92
-20 -120 -26 -295 -72 -435 -114 -288 -88 -579 -139 -935 -162 -198 -13 -642
-16 -748 -5 l-67 8 0 -102 0 -101 78 5 c42 3 154 8 247 11 188 7 290 20 535
66 163 32 659 154 900 223 69 20 163 47 210 61 117 33 333 76 342 67 4 -4 22
-43 41 -87 47 -109 105 -217 124 -232 11 -9 20 -9 28 -3 13 11 25 -88 25 -211
l0 -67 -118 -9 c-64 -4 -558 -8 -1097 -7 -839 1 -1002 3 -1135 17 -85 9 -161
17 -167 17 -10 0 -13 -26 -13 -95 l0 -95 73 5 c39 3 176 10 302 15 127 6 289
15 360 20 72 6 253 14 404 19 151 6 277 13 280 18 3 4 51 9 106 10 629 13 954
22 973 28 l22 7 -6 -128 c-3 -71 -13 -183 -21 -249 -22 -177 -25 -160 27 -160
25 0 63 4 84 8 l39 8 -6 -81 c-7 -91 -13 -100 -82 -120 -22 -7 -76 -25 -120
-42 -120 -44 -138 -48 -285 -48 -156 0 -738 -25 -950 -41 -188 -14 -304 -30
-530 -74 -102 -19 -249 -46 -327 -60 -156 -27 -241 -47 -297 -70 l-36 -15 0
-109 0 -108 158 62 c367 145 551 204 784 250 73 15 167 33 208 42 120 24 470
49 840 59 l235 6 -56 -58 c-133 -139 -220 -338 -206 -473 12 -108 107 -276
201 -354 28 -23 62 -52 76 -64 14 -13 30 -23 37 -23 7 0 27 -6 45 -14 49 -22
69 -29 118 -42 l45 -13 -45 4 c-25 3 -124 9 -220 15 -96 6 -185 13 -197 15
-43 10 -394 6 -516 -5 -67 -6 -214 -22 -327 -35 -376 -44 -554 -64 -665 -75
-60 -6 -184 -25 -275 -42 -91 -16 -182 -32 -202 -35 l-38 -6 0 -134 c0 -93 3
-132 11 -128 18 12 379 136 484 166 111 33 339 90 485 121 562 119 669 133
955 118 213 -10 353 -20 622 -44 256 -23 274 -25 488 -35 297 -15 703 -71 975
-134 306 -72 904 -238 1208 -335 69 -23 122 -35 122 -29 0 6 6 3 13 -6 9 -13
231 -107 252 -107 3 0 51 -18 107 -40 l101 -40 286 2 286 3 -40 18 c-82 38
-102 47 -175 75 -80 31 -301 105 -440 147 -47 15 -112 35 -145 45 -33 10 -125
38 -205 63 -80 24 -199 59 -265 77 -66 18 -181 50 -255 70 -220 62 -407 103
-668 148 l-103 17 62 44 c56 40 65 43 108 38 97 -11 218 31 321 111 47 36 139
132 140 144 0 15 52 58 69 58 10 0 26 -11 35 -25 9 -14 50 -41 90 -60 68 -32
81 -35 168 -35 l93 0 50 -44 c28 -24 69 -53 91 -64 60 -31 177 -43 288 -30 84
10 100 9 185 -12 136 -33 261 -14 343 53 25 20 48 37 52 37 13 0 158 130 317
284 268 260 380 363 634 585 146 128 160 140 228 195 26 22 84 81 128 133 47
55 87 93 98 93 10 0 99 16 197 35 99 20 301 56 449 80 149 24 344 60 435 79
205 43 323 52 823 68 l397 12 0 63 0 63 -147 -1 c-82 0 -195 -4 -253 -8 -58
-5 -159 -5 -225 0 -408 28 -528 40 -875 89 -113 16 -250 31 -305 35 -55 4
-101 8 -103 10 -2 2 12 27 32 57 20 29 36 57 36 62 0 6 11 21 24 35 13 15 45
72 70 129 26 57 57 120 71 141 13 21 36 67 50 102 15 35 35 82 45 104 10 22
25 56 34 75 18 40 86 248 86 264 2 42 76 60 380 95 239 27 892 43 1029 25 l51
-7 0 83 0 82 -102 -6 c-181 -12 -418 -35 -608 -60 -158 -21 -272 -39 -660
-104 -30 -6 -56 -9 -57 -8 -2 1 2 16 7 32 9 26 46 168 70 269 5 22 17 83 25
135 9 52 18 107 21 121 5 25 5 25 72 17 37 -4 157 -17 267 -28 366 -37 631
-81 910 -150 22 -5 43 -10 48 -10 4 0 7 29 7 65 0 45 -4 65 -12 65 -7 0 -67 5
-133 10 -66 5 -183 14 -260 20 -183 13 -801 76 -859 87 -27 5 -28 7 -21 42 13
63 6 341 -11 485 l-6 49 43 -7 c24 -3 98 -11 164 -16 229 -20 480 -80 953
-231 68 -21 128 -39 133 -39 5 0 9 36 9 79 l0 79 -52 12 c-98 22 -183 39 -213
44 -16 3 -97 16 -180 30 -232 39 -251 42 -720 86 -55 5 -109 9 -120 10 -17 0
-23 11 -34 63 -7 34 -16 71 -21 82 -5 11 -23 61 -40 110 -58 169 -81 230 -117
310 -72 164 -157 376 -198 495 -19 52 -40 112 -49 132 -26 60 -24 62 52 54 37
-4 92 -11 122 -16 30 -5 100 -16 155 -25 311 -50 528 -110 870 -239 170 -64
180 -68 424 -183 63 -29 116 -53 117 -53 2 0 4 45 4 100 0 78 -3 100 -14 100
-7 0 -65 16 -127 36 -63 20 -161 47 -219 60 -211 46 -238 53 -410 98 -249 66
-694 151 -924 176 -49 5 -90 11 -91 12 -2 2 -16 57 -31 123 -26 113 -28 136
-32 413 -5 334 -2 362 32 362 55 0 343 -55 501 -96 154 -39 207 -56 400 -129
151 -57 196 -77 440 -198 233 -116 439 -207 465 -207 6 0 10 41 10 99 l0 99
-107 35 c-60 20 -151 49 -203 66 -52 16 -160 53 -240 81 -374 133 -538 181
-720 210 -41 7 -140 25 -220 41 -80 16 -187 34 -237 41 -51 6 -98 15 -104 19
-19 12 27 240 110 544 21 77 82 275 84 275 1 0 63 6 138 14 315 34 697 30 963
-9 78 -12 435 -95 519 -121 16 -5 17 3 15 103 l-3 108 -100 12 c-142 17 -805
28 -935 15 -379 -39 -534 -53 -546 -50 -10 2 0 31 39 108 l52 105 195 105
c107 58 217 119 245 135 98 59 576 222 852 290 l203 50 0 88 c0 48 -4 87 -8
87 -28 0 -496 -189 -662 -267 -52 -25 -128 -58 -168 -74 -93 -37 -157 -69
-257 -129 -44 -26 -145 -82 -223 -123 -124 -65 -147 -74 -167 -65 -19 9 -30 5
-70 -23 -26 -19 -75 -52 -109 -74 -34 -22 -80 -54 -102 -71 -42 -33 -103 -68
-110 -62 -2 2 5 22 16 44 10 21 37 78 59 125 60 126 253 437 374 602 l69 93
131 23 c248 43 372 61 587 85 258 30 334 35 508 36 l132 0 0 85 0 85 -27 0
c-16 0 -64 -6 -108 -14 -44 -8 -134 -21 -200 -30 -205 -28 -316 -46 -445 -76
-248 -58 -387 -89 -480 -109 -281 -61 -330 -70 -385 -77 -59 -7 -60 -6 -42 13
9 11 17 23 17 27 0 12 84 123 146 192 66 75 301 314 365 372 44 40 51 42 180
67 74 14 190 37 259 51 151 30 305 56 505 83 83 12 165 24 183 27 l32 5 0 75
c0 67 -2 75 -17 70 -10 -3 -40 -10 -68 -16 -141 -30 -833 -197 -891 -216 -25
-7 26 37 83 74 44 28 53 51 29 71 -12 10 -157 -3 -271 -25 -26 -5 -20 2 39 47
37 30 103 79 146 109 81 58 83 59 195 141 39 28 81 55 95 61 14 5 32 15 40 23
8 7 26 16 40 20 52 16 47 59 -9 75 -54 15 -290 12 -406 -5 -214 -32 -666 -188
-865 -298 -30 -17 -104 -55 -163 -86 -59 -30 -136 -78 -170 -106 -34 -28 -93
-73 -132 -100 -85 -59 -163 -122 -231 -184 -27 -25 -63 -55 -79 -66 -38 -26
-106 -85 -180 -156 -56 -53 -66 -58 -140 -74 -77 -16 -317 -65 -322 -65 -2 0
-3 42 -3 93 0 58 -6 111 -15 139 l-16 45 -107 31 c-258 76 -444 100 -764 103
-87 0 -160 4 -163 8 -2 5 18 20 46 35 27 15 86 51 130 79 44 29 98 64 122 78
114 71 432 267 512 316 50 31 102 64 117 74 15 11 29 19 32 19 3 0 43 24 88
53 46 30 198 122 338 206 140 85 271 163 290 176 31 20 135 85 413 257 316
197 437 280 757 521 168 126 352 267 410 313 58 45 175 138 260 205 85 67 184
145 220 174 36 28 94 73 129 101 35 27 85 67 111 89 26 22 120 98 209 169 143
114 161 132 161 158 0 16 -4 28 -9 26 -6 -1 -106 -80 -223 -175 -117 -95 -325
-260 -463 -368 -137 -108 -311 -244 -385 -303 -74 -58 -227 -176 -340 -261
-113 -85 -217 -164 -231 -175 -15 -12 -37 -28 -50 -38 -13 -9 -62 -45 -109
-79 -75 -56 -301 -203 -460 -302 -186 -114 -410 -253 -442 -273 -21 -14 -98
-59 -170 -102 -73 -43 -213 -128 -311 -188 -98 -60 -204 -125 -236 -144 -32
-19 -95 -58 -142 -86 -253 -154 -619 -380 -656 -405 -23 -16 -44 -29 -47 -29
-3 0 -51 -29 -106 -65 -99 -64 -101 -65 -170 -65 -55 0 -71 4 -82 18 -7 11
-24 25 -38 32 -13 7 -87 63 -165 125 -77 61 -173 133 -213 160 -40 27 -71 52
-70 56 3 8 102 112 307 325 156 160 253 262 341 359 170 188 347 372 515 540
333 331 957 937 1060 1029 55 49 246 236 425 415 321 322 325 326 292 329 -32
3 -48 -11 -315 -281 -155 -156 -365 -359 -467 -452 -102 -93 -293 -275 -425
-405 -132 -130 -289 -283 -350 -341 -237 -224 -574 -568 -830 -849 -64 -70
-278 -292 -470 -487 l-150 -152 -80 41 c-220 110 -554 224 -716 243 -56 7
-119 23 -119 31 0 14 34 82 73 146 24 40 57 98 73 128 16 30 56 98 89 150 34
52 80 130 104 174 113 209 194 350 253 441 78 121 212 349 298 505 57 104 187
319 349 580 128 206 321 529 321 537 0 5 -24 10 -52 10 -29 1 -43 -1 -30 -4z
m-2218 -2493 c107 -13 193 -28 285 -51 87 -22 245 -81 285 -108 14 -9 36 -21
50 -27 25 -11 25 -11 -12 -18 -43 -8 -47 -16 -39 -76 4 -32 12 -47 27 -55 12
-6 48 -36 80 -67 l57 -56 -154 5 c-181 6 -312 -6 -464 -42 -103 -25 -111 -28
-126 -58 -22 -45 -10 -71 43 -91 42 -15 38 -16 -112 -9 -85 3 -375 6 -643 4
-590 -2 -541 10 -617 -146 -83 -172 -131 -453 -111 -652 20 -191 65 -341 170
-568 29 -60 55 -119 60 -130 4 -11 18 -41 30 -68 38 -86 47 -82 -177 -83 -195
-1 -474 -21 -707 -50 -66 -9 -129 -16 -140 -17 -16 -2 -23 10 -37 62 -28 104
-49 295 -49 447 0 116 5 161 27 255 51 225 74 289 186 519 83 169 128 241 235
376 85 107 153 172 283 270 229 173 494 286 840 359 432 90 525 100 730 75z
m938 -376 c80 -23 316 -126 422 -185 62 -34 145 -79 345 -184 76 -40 220 -140
261 -180 7 -6 25 -23 40 -36 27 -23 74 -82 74 -93 0 -2 -37 -16 -82 -31 -45
-15 -96 -36 -113 -48 -16 -11 -31 -21 -33 -22 -1 -1 0 -10 4 -19 8 -21 30 -20
61 4 102 80 483 126 838 101 151 -11 464 -52 530 -69 72 -19 96 -156 76 -430
-29 -396 -97 -628 -307 -1052 -40 -80 -82 -167 -94 -194 -38 -85 -42 -85 -100
-6 l-51 69 25 48 c15 26 26 53 26 59 0 6 14 44 31 85 57 136 108 278 134 377
27 99 45 168 110 417 20 77 47 174 60 215 33 100 58 217 50 230 -9 14 -42 12
-68 -4 -20 -12 -226 -65 -517 -131 -198 -45 -365 -85 -479 -115 -62 -16 -117
-27 -122 -24 -17 10 -50 -17 -47 -38 3 -20 11 -21 103 -25 191 -7 282 -39 381
-135 35 -34 64 -64 64 -68 0 -4 -26 -13 -59 -19 -68 -13 -229 -76 -251 -97
-13 -14 -13 -17 4 -29 11 -8 29 -12 40 -9 30 7 193 -50 241 -85 37 -27 135
-143 135 -160 0 -4 -28 -4 -62 1 -106 15 -208 0 -208 -31 0 -3 14 -22 30 -41
16 -19 30 -38 30 -41 0 -3 14 -21 30 -40 46 -52 175 -221 190 -248 11 -21 138
-198 175 -243 8 -10 27 -37 42 -60 15 -24 40 -58 56 -77 35 -41 102 -182 112
-234 l7 -36 -28 12 c-15 7 -52 24 -82 40 -30 15 -60 27 -68 27 -16 0 -19 -41
-5 -55 20 -20 80 -175 96 -247 9 -40 15 -101 13 -133 l-3 -60 -50 65 c-27 36
-52 67 -55 70 -3 3 -18 22 -33 43 -17 22 -36 37 -45 35 -14 -3 -16 -20 -17
-113 -1 -83 -6 -129 -23 -186 -23 -77 -85 -239 -114 -293 l-16 -30 -43 77
c-24 42 -53 80 -64 86 -61 28 -95 41 -109 41 -9 0 -16 4 -16 9 0 12 80 31 129
31 42 0 74 21 65 45 -21 52 -349 127 -491 111 -29 -4 -53 -3 -53 1 1 12 173
144 207 158 24 10 30 18 26 34 -11 42 -25 42 -135 7 -102 -33 -195 -75 -268
-121 -19 -12 -64 -37 -100 -56 -36 -18 -67 -36 -70 -39 -28 -29 -291 -145
-415 -183 -84 -25 -117 -30 -210 -31 -124 -1 -142 6 -189 78 -40 61 -49 130
-43 321 5 151 9 186 41 315 47 189 62 318 47 418 -14 91 -49 192 -67 192 -26
0 -44 -13 -44 -31 0 -24 -50 -125 -79 -159 l-20 -25 -1 65 c-1 191 -44 361
-121 475 -35 53 -159 310 -166 346 -12 62 -58 60 -92 -4 -12 -23 -38 -69 -56
-102 -70 -123 -141 -315 -171 -459 -23 -115 -34 -150 -34 -111 0 10 -11 33
-26 52 -14 18 -21 33 -17 34 4 0 -3 5 -16 10 -35 14 -53 -9 -80 -101 -35 -115
-39 -304 -12 -492 12 -80 28 -166 37 -190 64 -174 101 -377 91 -491 -5 -51
-10 -66 -33 -86 -24 -20 -35 -23 -77 -18 -75 9 -148 48 -223 120 l-69 66 49
-14 c27 -8 88 -15 135 -15 78 0 89 2 113 25 51 47 57 209 14 363 -28 98 -103
242 -154 297 -89 96 -223 167 -367 196 -78 16 -112 28 -152 56 -40 26 -59 34
-78 29 -32 -8 -32 -31 -1 -133 51 -163 74 -250 81 -303 8 -63 41 -157 63 -183
25 -28 8 -29 -29 -1 -51 37 -121 53 -228 51 -77 -2 -96 -5 -105 -20 -9 -14 -4
-23 30 -55 23 -21 58 -70 78 -111 l38 -74 -29 9 c-27 9 -143 11 -211 4 -51 -5
-57 -21 -32 -87 22 -60 22 -112 -2 -172 l-10 -26 -10 25 c-24 63 -38 220 -29
317 17 179 135 479 221 562 46 44 52 71 16 71 -16 0 -34 -14 -57 -42 -18 -24
-73 -83 -121 -133 -78 -80 -88 -87 -88 -64 0 33 34 168 59 234 11 28 35 97 54
155 19 58 50 146 67 195 44 122 70 218 70 258 0 48 57 222 99 301 40 77 127
177 202 232 47 34 60 56 40 68 -5 4 -42 -1 -81 -9 -39 -8 -76 -13 -80 -10 -5
3 -27 1 -49 -4 -23 -5 -41 -5 -41 -1 0 28 210 160 255 160 19 0 31 28 18 41
-5 5 -33 13 -63 19 -29 6 -56 12 -58 15 -11 11 44 56 102 85 138 68 287 102
388 88 35 -5 73 -6 84 -3 25 6 42 54 24 65 -7 4 -10 11 -8 15 3 8 -5 11 -112
41 -89 24 -248 54 -289 54 -20 0 -64 5 -97 11 -156 28 -276 84 -389 183 -16
14 -46 29 -65 32 -19 3 -43 8 -52 10 -10 3 -21 -3 -28 -16 -15 -28 -37 -454
-28 -560 9 -119 61 -269 147 -428 39 -71 71 -135 71 -140 0 -6 5 -12 10 -14 7
-2 4 -23 -6 -58 l-16 -55 -17 45 c-10 25 -43 84 -75 132 -64 98 -101 176 -140
291 -45 134 -59 242 -59 462 -1 310 34 414 138 415 22 0 67 5 100 10 33 6 182
10 330 10 267 0 368 -2 862 -15 l253 -7 -43 -29 c-47 -31 -207 -165 -248 -208
-15 -15 -61 -71 -103 -125 -64 -82 -74 -100 -66 -117 16 -28 29 -24 115 32 42
28 135 75 205 105 121 51 339 114 395 114 18 0 25 5 25 20 0 28 -21 34 -77 20
-26 -6 -82 -19 -123 -29 -107 -26 -294 -98 -377 -147 -24 -14 -43 -21 -43 -16
0 12 144 160 209 213 77 64 196 145 234 159 17 6 40 16 49 21 9 5 36 12 60 15
54 8 78 21 78 40 0 26 -23 40 -75 48 -28 3 -81 18 -120 32 -38 15 -89 31 -112
38 -23 6 -45 14 -48 18 -4 3 20 14 52 25 47 14 91 18 228 18 152 0 177 -2 231
-23 78 -28 94 -23 94 32 0 41 -54 166 -96 224 -20 27 -12 28 64 6z m4750 -96
c-76 -51 -181 -126 -235 -167 -54 -41 -114 -86 -133 -100 -58 -42 -268 -251
-323 -321 -29 -36 -62 -76 -74 -89 -28 -32 -47 -76 -39 -96 10 -26 41 -17 86
26 80 76 291 238 362 277 43 25 168 75 172 70 2 -1 -48 -50 -111 -108 -62 -58
-142 -138 -176 -179 -34 -40 -77 -88 -95 -105 -119 -111 -357 -575 -376 -733
-6 -47 -5 -52 16 -59 17 -5 26 -1 38 16 43 62 107 122 220 207 69 51 128 93
131 93 4 0 -15 -34 -43 -75 -89 -134 -361 -685 -411 -835 -72 -213 -106 -372
-86 -397 22 -25 49 -15 65 25 49 121 140 258 264 395 52 58 101 108 108 111
17 8 12 -18 -35 -179 -69 -235 -94 -332 -129 -510 -40 -203 -64 -366 -64 -439
0 -40 -3 -47 -16 -42 -28 11 -54 -12 -54 -47 -1 -18 -11 -61 -24 -97 -65 -180
-78 -221 -107 -362 -18 -84 -36 -157 -39 -161 -4 -5 -17 19 -30 52 -12 33 -25
61 -29 63 -3 2 -34 62 -68 133 -73 153 -112 280 -120 387 -17 233 -128 9 -174
-352 -21 -168 -20 -168 -61 -39 -91 282 -142 608 -136 859 l3 135 -24 0 c-13
0 -27 -7 -32 -15 -13 -26 -136 -411 -162 -510 -35 -132 -55 -241 -63 -351 -9
-111 -9 -111 -58 136 -48 241 -60 369 -53 549 8 172 33 349 82 582 6 26 -18
39 -44 25 -26 -14 -115 -194 -144 -291 -14 -47 -34 -125 -44 -175 l-18 -90 -3
130 c-5 213 24 456 74 610 97 296 275 669 432 905 76 113 208 279 289 363 94
97 283 260 362 312 25 17 71 49 101 72 51 39 284 183 295 183 3 0 22 10 43 23
88 55 342 156 492 196 41 11 95 27 120 35 49 18 163 44 195 45 10 1 -42 -41
-117 -91z m-6649 -787 c26 -15 56 -31 68 -35 11 -4 28 -15 38 -26 10 -11 22
-20 26 -20 5 0 22 -8 39 -19 l31 -18 -49 -32 c-27 -17 -57 -31 -66 -31 -18 0
-86 -61 -86 -77 0 -23 42 -53 75 -53 19 0 35 -4 35 -10 0 -5 -31 -44 -70 -87
-38 -43 -70 -85 -70 -93 0 -8 -4 -21 -8 -28 -5 -8 -20 21 -40 81 -29 85 -32
104 -32 216 0 149 23 261 53 261 5 0 31 -13 56 -29z m4861 -56 c0 -3 -11 -18
-24 -33 -47 -53 -201 -252 -207 -267 -2 -5 -19 -34 -37 -62 -29 -46 -38 -53
-66 -53 -30 0 -32 2 -29 28 2 15 7 92 11 172 l7 145 159 32 c87 17 161 34 164
37 7 7 22 8 22 1z m-855 -297 c-23 -233 -117 -638 -206 -887 -42 -119 -42
-119 -67 -79 -12 18 -42 62 -67 98 -36 51 -42 66 -29 68 8 2 23 -3 33 -12 42
-38 121 -24 136 24 10 30 -33 140 -83 215 -63 95 -116 154 -176 193 l-51 33
55 -6 c30 -3 59 -10 65 -16 5 -5 23 -9 41 -9 45 0 49 29 14 101 -34 70 -90
140 -147 184 l-43 33 78 17 c173 39 314 76 359 95 27 10 59 19 72 19 23 1 23
0 16 -71z m-2557 -560 c75 -149 119 -234 143 -280 27 -53 51 -208 51 -333 0
-71 -2 -141 -4 -155 -4 -35 43 -42 60 -8 7 13 30 45 51 71 21 27 49 70 62 95
l23 47 13 -55 c17 -69 11 -271 -10 -355 -61 -241 -62 -250 -62 -475 0 -244 6
-270 82 -348 47 -48 92 -58 222 -48 216 16 380 80 791 312 110 62 209 108 216
101 3 -2 -8 -12 -23 -22 -15 -10 -40 -31 -55 -46 -16 -15 -46 -43 -69 -63 -35
-29 -40 -39 -35 -60 7 -30 20 -32 72 -10 85 36 367 23 434 -18 17 -11 15 -13
-18 -28 -20 -9 -56 -22 -80 -30 -85 -27 -74 -69 23 -90 47 -10 145 -53 145
-63 0 -26 -94 -227 -134 -287 -60 -89 -276 -279 -375 -329 -68 -35 -310 -102
-418 -116 -82 -11 -160 -13 -324 -8 -158 4 -218 3 -223 -6 -17 -26 -59 -8
-166 71 -60 44 -110 85 -110 90 0 4 9 13 21 20 25 16 77 90 85 123 4 17 13 25
28 25 65 0 216 -25 316 -51 63 -17 133 -35 155 -39 22 -5 49 -12 60 -16 11 -4
18 -5 15 -1 -9 10 -215 84 -280 100 -63 15 -183 34 -245 40 -26 2 -31 7 -36
37 -3 19 -11 45 -18 58 -11 20 -9 23 16 33 15 6 48 14 73 19 25 4 92 18 150
30 58 11 150 27 206 35 146 21 174 37 53 30 -143 -7 -289 -30 -516 -82 -18 -4
-23 -1 -23 15 0 24 -36 40 -53 23 -7 -7 -7 -18 1 -36 11 -23 9 -25 -16 -32
-62 -15 -90 -32 -85 -52 5 -18 6 -18 64 2 68 23 77 19 86 -36 l5 -36 -68 -3
c-61 -3 -69 -5 -69 -23 0 -18 6 -20 63 -17 37 3 62 0 62 -6 0 -12 -73 -107
-91 -117 -7 -5 -24 6 -41 24 -17 18 -35 30 -41 28 -21 -7 -18 -26 10 -52 27
-25 27 -26 9 -40 -23 -18 -122 -20 -163 -4 -73 27 -100 78 -104 193 l-3 88 35
19 c49 25 145 130 175 192 43 91 29 144 -51 186 -32 17 -58 21 -137 21 -54 0
-117 -4 -140 -10 -24 -5 -55 -12 -69 -15 -41 -7 -81 -74 -81 -133 0 -57 8 -74
75 -162 66 -87 98 -120 114 -120 38 0 -18 -156 -72 -198 -37 -29 -87 -35 -145
-18 -50 15 -140 70 -140 85 0 11 36 21 73 21 20 0 27 5 27 20 0 24 -21 26 -81
5 -23 -9 -46 -12 -50 -8 -3 5 -10 32 -13 62 l-7 54 54 -6 c30 -4 57 -4 60 -1
11 11 -5 34 -24 34 -16 0 -17 3 -7 19 9 15 8 22 -6 36 -16 17 -16 18 4 32 36
26 24 36 -37 30 -35 -3 -103 3 -173 14 -117 20 -400 26 -400 8 0 -4 -15 -10
-32 -12 -18 -3 17 -3 78 0 186 7 462 -32 450 -64 -4 -8 -9 -25 -12 -37 -4 -19
-16 -24 -77 -34 -40 -7 -136 -29 -214 -48 l-141 -36 -79 53 c-210 142 -339
324 -383 544 -12 61 -23 117 -24 125 -1 11 12 16 54 18 58 3 131 -18 165 -48
19 -18 37 -24 62 -21 20 2 20 34 1 71 -10 19 -18 40 -18 47 0 19 -33 83 -42
83 -4 0 -8 5 -8 12 0 6 -12 26 -26 45 -14 19 -23 37 -20 40 9 9 115 4 134 -7
9 -5 38 -18 64 -30 50 -23 166 -132 334 -316 104 -112 176 -161 268 -181 60
-13 137 -10 183 8 34 13 45 73 38 208 -8 146 -24 225 -74 378 -68 205 -95 460
-67 622 21 118 28 133 49 100 16 -24 67 -195 67 -223 0 -19 47 -33 62 -18 8 8
8 26 -2 66 -25 104 8 310 80 508 49 132 134 308 150 308 3 0 42 -73 88 -162z
m2777 -469 c-22 -125 -44 -321 -47 -431 -2 -54 -5 -98 -8 -98 -3 0 -11 19 -17
43 -7 23 -33 78 -58 121 l-45 79 18 41 c9 22 39 83 66 136 27 52 60 119 74
147 14 29 27 51 29 50 1 -2 -4 -41 -12 -88z m311 -235 c-28 -111 -48 -325 -49
-509 0 -188 2 -212 37 -405 58 -320 107 -480 150 -488 33 -7 37 11 24 111 -22
177 15 411 116 720 l52 162 7 -115 c14 -265 102 -669 193 -889 47 -114 49
-117 70 -113 25 5 34 21 28 52 -9 59 -10 121 -3 211 9 99 50 324 68 369 l10
25 0 -28 c1 -50 77 -257 143 -393 35 -71 76 -159 92 -195 39 -85 63 -119 86
-119 25 0 34 17 32 60 -3 45 40 279 69 375 11 39 32 99 47 134 l26 64 37 -139
c93 -351 244 -833 393 -1253 50 -141 123 -454 136 -580 19 -193 11 -313 -35
-546 -27 -133 -145 -580 -201 -763 -20 -64 -40 -133 -46 -152 -29 -100 -135
-331 -191 -418 l-34 -52 -8 287 c-4 159 -8 302 -10 320 -26 290 -75 461 -215
750 -51 103 -96 195 -101 203 -4 8 -19 38 -33 66 -29 63 -152 255 -218 343
-97 129 -225 243 -335 300 -24 12 -43 22 -43 24 -1 21 -167 660 -190 732 -60
189 -110 360 -110 380 0 12 -4 25 -9 30 -11 12 -74 236 -106 380 -38 167 -58
421 -37 462 6 11 9 23 6 25 -5 6 58 332 82 418 26 96 91 240 70 154z m-4074
-170 c61 -19 68 -32 32 -60 -74 -59 -109 -112 -123 -187 l-8 -42 -12 30 c-11
26 -28 127 -48 278 l-6 48 59 -26 c32 -15 80 -33 106 -41z m188 -93 c58 -29
85 -49 77 -58 -4 -4 -13 -1 -19 5 -20 20 -55 14 -104 -18 -57 -35 -72 -57 -89
-120 -18 -66 -6 -113 40 -160 83 -85 208 -67 262 38 l21 43 17 -51 c9 -27 14
-58 10 -69 -16 -52 -138 -131 -202 -131 -28 0 -101 50 -154 106 -56 59 -79
127 -74 221 3 74 21 116 67 159 32 30 88 64 98 60 3 -1 25 -12 50 -25z m3475
-478 c10 -14 28 -36 41 -47 19 -18 24 -34 29 -115 4 -51 8 -101 10 -110 2 -9
6 -50 10 -91 7 -70 16 -123 66 -355 10 -49 35 -142 55 -205 43 -139 91 -297
109 -365 7 -28 41 -124 75 -214 33 -90 59 -165 57 -167 -1 -2 -14 3 -27 10
-14 7 -88 46 -165 86 -77 40 -167 89 -200 109 -87 53 -233 204 -293 303 -66
110 -132 241 -132 262 0 10 -4 25 -10 35 -5 10 -14 46 -19 79 -11 70 1 136 43
232 13 30 38 87 55 125 17 39 34 85 37 103 8 40 17 46 36 24 18 -20 84 -145
98 -184 19 -55 61 -29 71 44 4 29 12 94 19 143 7 50 10 142 8 208 -3 64 -2
117 2 117 4 0 16 -12 25 -27z m-2630 -373 c43 -27 45 -51 10 -123 -40 -81
-129 -168 -188 -182 -24 -6 -34 -1 -72 41 -25 26 -45 51 -45 54 0 4 -9 17 -20
30 -11 13 -25 41 -32 62 -10 34 -9 42 9 66 11 15 29 32 40 37 12 6 27 16 35
22 35 30 212 25 263 -7z m2060 -357 c25 -195 60 -342 103 -427 104 -210 252
-353 532 -514 58 -33 134 -75 170 -94 349 -182 601 -360 815 -573 158 -157
238 -271 358 -510 96 -192 147 -340 179 -520 17 -98 21 -161 22 -345 0 -199
-3 -236 -23 -325 -52 -228 -130 -444 -190 -530 -48 -68 -151 -196 -176 -218
-11 -10 -70 -67 -130 -126 -61 -59 -124 -116 -140 -126 -17 -11 -41 -28 -55
-40 -41 -32 -170 -92 -225 -104 -27 -6 -122 -12 -210 -13 -150 -2 -167 0 -280
30 -399 104 -661 118 -855 47 -64 -24 -256 -72 -316 -79 -43 -5 -56 -3 -85 17
-80 54 -176 226 -213 382 -30 126 -41 293 -26 388 58 361 125 551 252 719 103
135 319 352 440 443 70 52 210 136 318 192 73 38 96 54 98 72 4 28 -9 25 -113
-23 -64 -30 -283 -160 -295 -175 -3 -4 -17 -14 -32 -24 -81 -51 -269 -235
-394 -385 -168 -202 -245 -378 -299 -683 -23 -125 -27 -180 -26 -296 1 -82 7
-170 15 -205 47 -205 58 -245 76 -280 28 -53 27 -128 -2 -178 -13 -22 -26 -40
-30 -40 -4 0 -19 27 -34 60 -20 45 -44 76 -98 124 -50 44 -81 83 -104 127
l-33 64 10 129 c6 71 11 172 11 225 0 123 16 251 39 321 11 30 24 75 31 100
16 62 104 211 208 356 107 150 233 323 310 429 77 105 160 248 214 372 36 81
107 269 118 313 51 202 69 309 80 485 16 250 2 414 -33 403 -8 -3 -13 -34 -14
-99 -8 -302 -24 -484 -53 -620 -29 -132 -40 -168 -110 -359 -43 -118 -118
-267 -191 -380 -34 -52 -65 -97 -68 -100 -4 -3 -32 -41 -61 -85 -29 -44 -90
-129 -135 -190 -74 -100 -194 -278 -256 -380 -33 -56 -54 -103 -73 -169 -9
-31 -20 -56 -24 -56 -16 0 -67 -236 -78 -358 -6 -75 -9 -85 -30 -94 -16 -8
-26 -22 -30 -47 -3 -20 -19 -83 -35 -141 -15 -58 -34 -130 -41 -160 l-12 -55
-9 45 c-15 76 -13 381 2 409 12 21 11 26 -4 37 -20 15 -55 -1 -55 -24 0 -7
-16 -44 -36 -83 -73 -145 -171 -414 -195 -534 l-11 -59 -13 39 c-25 75 -45
193 -51 309 -4 64 -11 116 -16 116 -20 0 -48 -22 -48 -37 0 -9 -18 -54 -40
-100 -57 -119 -97 -244 -118 -370 -18 -104 -19 -107 -30 -73 -18 55 -49 197
-67 299 -31 180 1 424 94 716 21 66 45 158 54 205 45 250 72 383 75 363 3 -23
-11 -107 -23 -135 -4 -11 0 -20 14 -28 28 -15 61 3 61 33 0 13 4 27 9 33 11
12 82 172 131 294 56 142 118 339 146 464 37 168 122 528 151 641 14 55 35
139 47 187 11 49 25 88 30 88 19 0 -12 -424 -39 -532 -6 -21 -3 -27 16 -33 55
-18 126 119 315 608 67 173 73 194 90 337 8 63 19 156 25 205 7 56 9 158 5
268 l-6 177 27 11 c218 82 416 218 598 412 44 46 83 85 87 86 4 0 10 -20 13
-46z m-2740 -30 c3 -21 9 -52 14 -69 l8 -32 -82 -31 c-45 -17 -87 -31 -94 -31
-23 0 -233 112 -225 119 17 16 287 77 351 80 18 1 23 -6 28 -36z m-693 -39
c46 -31 86 -61 89 -66 3 -5 8 -9 10 -7 2 1 56 -23 119 -53 63 -31 126 -60 140
-65 23 -9 17 -13 -75 -62 -107 -55 -183 -109 -135 -96 14 4 54 24 90 44 36 20
92 48 126 62 l60 26 57 -21 c30 -12 59 -24 62 -27 3 -4 -23 -56 -59 -117 -80
-136 -197 -386 -237 -506 -17 -49 -35 -126 -40 -170 -12 -112 -25 -194 -49
-311 -11 -55 -20 -115 -20 -133 0 -57 21 -121 41 -127 23 -8 49 16 49 45 0 28
53 131 108 210 54 77 174 231 177 228 2 -2 -17 -64 -42 -138 -43 -133 -57
-186 -89 -345 -36 -180 0 -444 103 -753 46 -136 49 -143 73 -140 27 3 25 -6
50 191 10 81 48 209 90 302 10 23 22 53 25 68 11 44 25 42 25 -5 0 -71 27
-217 79 -425 87 -346 152 -505 295 -723 83 -125 114 -179 136 -237 10 -26 44
-111 75 -188 102 -251 125 -433 90 -717 -33 -272 -63 -466 -82 -531 -4 -17 -6
-16 -17 5 -14 27 -46 128 -71 228 -29 114 -47 252 -50 388 -2 74 -6 137 -10
140 -8 8 -37 -10 -46 -29 -40 -82 -126 -351 -140 -438 l-12 -75 -14 40 c-32
90 -63 292 -63 405 0 43 -5 81 -10 84 -18 11 -49 -5 -55 -28 -3 -12 -10 -31
-15 -42 -5 -11 -24 -63 -42 -115 l-33 -95 -7 115 c-4 63 -12 142 -17 175 -6
33 -14 100 -17 148 -7 87 -7 88 -33 85 -24 -3 -27 -9 -51 -130 -14 -70 -28
-129 -31 -132 -3 -3 -11 56 -17 132 -13 160 -39 289 -59 296 -23 9 -51 -12
-56 -41 -2 -16 -5 -1 -6 33 -2 110 -31 518 -41 579 -5 33 -16 119 -24 190 -40
336 -36 315 -60 315 -27 0 -35 -28 -42 -149 -7 -119 -8 -123 -22 -95 -24 45
-51 122 -73 209 -11 44 -34 122 -50 173 -67 211 -135 547 -145 719 -8 126 -20
152 -54 117 -15 -15 -23 -47 -34 -142 -8 -68 -17 -126 -19 -129 -7 -6 -55 144
-92 281 -14 55 -28 102 -30 106 -2 4 -9 33 -14 66 -6 32 -15 86 -21 119 -21
121 -29 285 -20 393 6 59 12 154 15 212 8 155 26 290 56 405 28 108 101 325
109 325 5 0 47 -25 92 -56z m773 -124 c56 -48 143 -90 189 -90 21 0 36 -6 40
-15 3 -8 11 -15 19 -15 7 0 32 -19 56 -42 39 -39 47 -42 104 -46 57 -3 66 -1
115 32 48 32 61 36 119 36 36 0 87 8 113 17 l47 17 117 -77 c64 -42 116 -81
116 -86 0 -5 -10 -13 -22 -17 -13 -4 -25 -9 -28 -13 -5 -6 -11 -10 -128 -77
-146 -84 -353 -113 -464 -65 -45 19 -60 32 -203 181 -81 84 -144 127 -278 190
-53 25 -97 47 -97 50 0 4 100 47 137 59 1 1 23 -17 48 -39z m420 -19 c3 -10
21 -35 41 -55 l35 -36 -28 -25 c-39 -34 -65 -31 -115 16 l-43 40 30 22 c16 12
36 30 44 39 20 23 28 23 36 -1z m-543 -160 c102 -44 135 -61 173 -91 22 -18
58 -41 79 -52 22 -11 62 -42 90 -68 181 -170 451 -167 740 8 44 28 100 53 122
57 41 6 43 5 98 -51 31 -32 56 -53 56 -48 0 5 -20 30 -45 54 -25 24 -45 47
-45 50 0 3 138 5 307 6 256 0 318 3 367 17 33 9 61 16 62 14 10 -10 14 -365 5
-432 -6 -44 -19 -145 -30 -225 -11 -83 -30 -173 -44 -210 -13 -36 -34 -92 -46
-125 -13 -33 -34 -84 -47 -113 -13 -29 -24 -56 -24 -60 0 -13 -113 -277 -128
-297 -13 -19 -14 -17 -9 15 20 125 29 333 18 414 -17 127 -31 152 -67 128 -6
-4 -30 -80 -53 -168 -22 -89 -45 -172 -50 -186 -5 -13 -16 -62 -26 -108 -9
-47 -36 -166 -60 -265 -23 -99 -57 -240 -74 -314 -39 -163 -115 -395 -172
-528 -52 -120 -59 -129 -59 -74 0 23 -7 74 -16 114 -15 65 -18 83 -23 125 -1
14 -29 16 -49 3 -7 -4 -15 -25 -18 -47 -2 -21 -15 -95 -28 -164 -14 -69 -30
-159 -36 -200 -10 -63 -43 -204 -91 -393 -10 -38 -11 -38 -27 -19 -40 48 -50
62 -105 152 -75 124 -117 181 -233 319 -109 129 -197 344 -284 694 -61 245
-84 395 -77 505 3 47 1 85 -5 88 -21 13 -55 -6 -65 -38 -6 -18 -40 -108 -76
-200 -36 -91 -75 -209 -87 -262 -12 -53 -23 -96 -25 -96 -7 0 -56 160 -87 285
-30 120 -33 142 -33 295 0 139 4 180 23 260 42 169 134 436 161 463 31 31 -5
80 -40 53 -53 -41 -310 -377 -345 -452 -41 -85 -43 -46 -9 138 13 73 29 176
35 228 18 150 44 236 122 412 71 158 211 408 228 408 5 0 28 -8 52 -19z m5319
-3322 c59 -5 174 -20 255 -34 82 -13 196 -29 254 -35 58 -6 146 -15 195 -20
50 -6 121 -11 159 -12 99 -2 74 -10 -214 -64 -255 -48 -279 -53 -342 -67 -35
-8 -94 -20 -133 -26 -164 -26 -372 -63 -548 -96 -104 -20 -191 -34 -194 -31
-7 7 32 63 79 111 58 60 176 204 206 253 l27 43 75 -6 c41 -3 123 -10 181 -16z
m-3831 -489 c10 -127 15 -152 52 -273 20 -67 39 -90 60 -69 6 6 11 64 12 134
2 99 8 144 31 231 30 112 43 136 27 48 -14 -79 -8 -165 16 -203 24 -39 85 -99
162 -160 71 -57 94 -92 110 -169 10 -47 11 -77 3 -123 -14 -82 -66 -202 -107
-249 l-33 -38 -6 59 c-11 102 -43 169 -116 242 -76 75 -154 121 -172 103 -19
-19 -4 -39 45 -63 25 -12 68 -46 95 -76 90 -102 116 -267 57 -368 -26 -45 -88
-100 -181 -163 -80 -54 -112 -69 -162 -77 -42 -6 -42 -6 -33 19 5 14 17 36 25
49 26 39 23 187 -5 260 -25 65 -105 156 -138 156 -31 0 -44 -21 -25 -42 9 -10
21 -18 28 -18 19 0 61 -52 80 -100 22 -57 24 -202 2 -244 -20 -38 -92 -102
-143 -126 -31 -15 -61 -20 -130 -20 l-89 0 -70 53 c-99 74 -109 98 -109 262
-1 72 5 191 12 265 6 74 17 191 23 260 12 133 22 164 33 105 4 -20 24 -98 45
-173 21 -75 41 -150 45 -165 5 -22 12 -28 29 -25 21 3 22 9 28 128 11 207 36
326 102 475 40 89 38 91 56 -52 9 -75 32 -169 80 -328 18 -62 34 -75 63 -53
14 11 15 20 7 63 -25 124 19 297 164 638 l12 28 2 -38 c2 -21 7 -94 13 -163z
m-1431 -232 c1 -135 3 -148 20 -158 23 -12 51 10 51 40 0 26 69 253 81 265 5
5 9 -2 9 -21 0 -17 9 -82 20 -145 35 -195 86 -343 122 -355 37 -11 47 13 37
91 -13 102 9 222 79 425 l19 54 6 -85 c11 -135 46 -325 82 -439 41 -131 75
-230 87 -253 10 -21 2 -145 -13 -203 -17 -63 -119 -164 -189 -187 -114 -36
-266 -68 -344 -74 -143 -10 -247 40 -296 143 -19 39 -22 58 -18 132 3 74 9 98
38 155 40 82 126 174 167 179 36 4 43 33 9 42 -36 9 -65 -6 -119 -60 -73 -73
-133 -182 -147 -265 -11 -67 -9 -146 5 -200 l7 -27 -79 15 c-77 14 -143 47
-143 71 0 6 -4 12 -10 12 -21 0 -32 86 -26 198 5 97 10 120 35 171 16 32 42
72 56 89 40 48 144 122 171 122 25 0 33 23 13 35 -25 16 -83 -8 -147 -63 -86
-73 -106 -96 -136 -157 -41 -86 -46 -107 -48 -226 -2 -65 -6 -115 -11 -112
-19 12 -87 126 -103 172 -31 97 0 256 65 328 54 59 139 121 193 141 59 22 127
19 231 -9 58 -16 78 -7 91 42 6 19 13 36 17 39 6 4 48 149 91 310 l12 45 7
-65 c4 -36 7 -131 8 -212z m3186 -18 c66 -11 185 -38 265 -58 140 -35 152 -36
322 -37 98 0 178 -2 178 -4 0 -4 7 2 -195 -181 -177 -160 -232 -214 -344 -339
-76 -84 -137 -134 -220 -181 -14 -8 -28 -17 -31 -20 -3 -3 -14 -11 -25 -18
-150 -95 -305 -93 -404 6 -95 96 -95 223 0 414 16 32 38 62 49 68 24 13 26 35
5 44 -31 11 -61 -13 -93 -72 -102 -191 -117 -341 -46 -454 27 -43 26 -44 -46
-51 -49 -5 -142 20 -196 54 -50 31 -112 107 -126 153 -15 53 -15 239 0 293 7
23 24 56 38 73 28 32 26 67 -2 56 -9 -3 -19 -6 -24 -6 -14 0 -49 -64 -67 -122
-22 -69 -23 -251 -1 -325 8 -29 15 -53 14 -53 -1 -1 -26 -3 -57 -6 -66 -7
-123 14 -183 66 -75 67 -96 159 -57 258 11 27 23 77 27 111 3 33 10 61 14 61
4 0 11 11 14 25 9 34 51 52 256 104 91 24 183 52 205 63 64 32 205 80 275 94
91 18 306 11 455 -16z"/>
<path d="M5024 7590 c-24 -9 -164 -28 -304 -40 -241 -21 -381 -62 -476 -139
-63 -51 -76 -68 -134 -187 -38 -78 -40 -86 -40 -179 0 -110 22 -211 51 -238
17 -16 39 -18 167 -19 142 -1 150 0 236 31 118 43 260 145 347 250 24 29 49
59 54 65 64 69 255 401 255 443 0 20 -116 30 -156 13z m27 -160 c-36 -73 -124
-216 -141 -230 -3 -3 -14 -16 -23 -29 -16 -24 -17 -23 -16 55 1 77 -27 184
-52 199 -22 14 -5 24 49 30 60 6 174 35 182 46 6 7 34 17 38 13 2 -1 -14 -39
-37 -84z m-282 -36 c55 -83 56 -213 2 -327 -27 -56 -42 -74 -94 -110 -78 -55
-172 -100 -206 -100 -111 2 -174 37 -219 121 -28 52 -32 70 -32 133 0 77 6 92
60 155 31 36 90 79 90 65 0 -5 -5 -13 -10 -16 -6 -4 -20 -25 -31 -47 -18 -36
-20 -47 -10 -99 17 -97 67 -144 166 -154 75 -8 113 7 155 59 38 49 43 69 37
144 -9 103 -41 142 -134 167 l-48 12 40 7 c22 4 67 13 100 20 95 22 100 21
134 -30z"/>
</g>
</svg>
