<?xml version="1.0" encoding="utf-8"?>
<!-- Generator: Adobe Illustrator 18.0.0, SVG Export Plug-In . SVG Version: 6.00 Build 0)  -->
<!DOCTYPE svg PUBLIC "-//W3C//DTD SVG 1.1//EN" "http://www.w3.org/Graphics/SVG/1.1/DTD/svg11.dtd">
<svg version="1.1" id="Layer_1" xmlns="http://www.w3.org/2000/svg" xmlns:xlink="http://www.w3.org/1999/xlink" x="0px" y="0px"
	 viewBox="31 32 722.6 722.1 " enable-background="new 31 32 722.6 722.1" xml:space="preserve">
<g id="design-freepik">
<path fill="#FFFFFF" stroke="#000000" stroke-width="1.6368" stroke-miterlimit="10" d="M475.73,1064.41H0v-26.57c3.42.41,2.68-2.06,2.68-3.94-.07-39.17-.22-78.33-.23-117.49q-.08-157.56,0-315.11c0-48.27.3-96.54.42-144.81Q3,407.25,3,358q0-46,.05-92.09,0-72.22,0-144.46c0-37.29-.08-74.58,0-111.87A72.45,72.45,0,0,1,4.11.81H0C.13.54.25.05.4,0,1.47,0,2.55,0,3.62,0H805.76v1064.4H522.42c-7.61-3.42-15-7.55-22.86-10.12-24.34-8-48.73-15.81-73.36-22.77-22.42-6.33-45.17-11.54-67.82-17-6.45-1.57-13.07-2.4-20.43-3.71,5.87-3.43,9.87-9.22,17.05-6.13.11,0,.26,0,.4,0,8.55-1,16.42-3.83,22.75-9.85a141,141,0,0,0,11.41-12.28c3.47-4.2,4.71-4.47,8.25-.68a14.34,14.34,0,0,0,2.44,2,29,29,0,0,0,20.13,5,10.09,10.09,0,0,1,8.63,3,38.77,38.77,0,0,0,7,5.31c5.91,3.44,12.57,3.64,19.06,3,7.6-.73,15-1.28,22.42,1.29,3.12,1.07,6.83.59,10.26.55,8.25-.11,14.78-4.47,20.5-9.63,14.79-13.36,29.16-27.18,43.8-40.71,9.32-8.62,18.82-17.05,28.24-25.56,10.3-9.31,20.71-18.49,30.83-28,3.78-3.54,6-8.3,12.33-9.09,10.29-1.3,20.41-3.92,30.65-5.72,12.62-2.22,25.33-3.91,37.92-6.31,16-3.05,31.85-6.77,48.18-7.32,20.75-.7,41.52-1.12,62.28-1.68.76,0,1.5-.18,2.24-.27V858c-9.68,0-19.14,0-28.61,0-5.74,0-11.49.51-17.22.3-7.72-.28-15.43-1-23.13-1.61-10.26-.87-20.52-1.71-30.75-2.88-11.41-1.31-22.76-3.05-34.16-4.44-6.43-.78-12.9-1.23-19.25-1.82,4.63-8.37,9.16-16.47,13.59-24.62,1.21-2.22,2-4.7,3.22-6.9a208.84,208.84,0,0,0,18.84-45.68c1-3.5,2.86-5,6.17-5.43,13.63-1.56,27.23-3.86,40.91-4.51,20.73-1,41.51-.86,62.27-1.11a76.06,76.06,0,0,1,8.14.76V747.22c-38.64,1.26-76.42,7.87-114.26,14.18,3.51-15.87,6.9-31.17,10.33-46.64,34.78,3,69.62,6.62,103.8,15.71V720.29l-102.32-9.51c-.47-16.26-.9-31.3-1.33-46,36,.27,69.56,12.76,104,23.16v-13c-34.71-8.33-69.79-12-104.88-14.89-8.55-35-26.58-66.12-36.84-100.48,50.39,3.91,96.8,19.72,141.59,42.19V585.89c-7.73-2.36-15.27-5-23-6.95-11.47-2.94-23-5.54-34.6-8.1-16.37-3.63-32.73-7.34-49.19-10.54-11.27-2.19-22.71-3.52-34-5.38-1.15-.19-2.82-1.19-3.09-2.15-2.92-10-4.9-20.21-4.9-30.71,0-7.5-.1-15,0-22.5,0-5.69.29-11.37.44-17.19a31.47,31.47,0,0,1,4.75,0c9.69,1.78,19.36,3.7,29,5.48A197,197,0,0,1,732.52,501c15.45,6.66,30.51,14.22,45.8,21.25,8.57,3.94,17.25,7.61,26.41,11.63V517.2C780.5,509,756.57,499.68,732,492.88s-49.83-11-75-16.46c.06.34,0,.07,0-.17,2.74-21.4,9.34-41.85,15.35-62.45a4.2,4.2,0,0,1,3-2.31c13.29-1.21,26.58-2.62,39.91-3.16a232.65,232.65,0,0,1,28.91.87,254.48,254.48,0,0,1,28.46,3.91c10.79,2.15,21.41,5.18,32.11,7.82V404c-21.53-3.35-43-3.7-64.37-2.9s-42.52,2.87-63.9,4.39c4-9.15,7.24-18,17.68-22.5,10.64-4.55,20.05-12.08,30.77-16.35,17.21-6.87,35-12.35,52.67-18,8.94-2.84,18.19-4.71,27.18-7v-14.6c-8.9,3.52-17.4,6.67-25.73,10.22-17.55,7.48-35.21,14.74-52.43,22.92-12.54,6-24.45,13.23-36.65,19.9-.89.48-2.31,1.39-2.77,1.07-3.71-2.59-6,.43-8.54,2-3,1.91-5.87,4.14-8.83,6.17-5,3.4-10,6.75-15.05,10.13l-1.24-1.07c4.95-9.37,9.47-19,15-28.06C676,358,684.27,346,692.4,333.9c1.48-2.19,3-4.3,6.4-4.76,9.9-1.32,19.68-3.63,29.59-4.89,17.35-2.21,34.75-4.18,52.17-5.72,7.94-.7,16-.12,24.09-.12V304.52c-46.39,3.55-90.64,17.36-136.24,24.81,3.41-5.64,6.7-11.18,10.93-15.85,9-9.89,18.4-19.38,27.75-28.93,4.6-4.71,9.61-8.57,16.66-9.35s13.85-2.55,20.78-3.76q19.34-3.36,38.68-6.57c7.18-1.19,14.38-2.22,21.41-3.3V249.51l-78.27,18.76c2.6-2.72,5.54-4.59,8.25-6.74.93-.75,1.3-2.2,1.92-3.33-1.31-.67-2.69-2-3.91-1.89-6.82.75-13.59,1.86-20.38,2.85,8.92-7.33,18.1-14.2,27.51-20.74,5.9-4.09,12.16-7.65,18.2-11.54A25.14,25.14,0,0,0,761.1,224c-1.23-1.15-2.46-3.29-3.7-3.3-10.92-.11-22-1.11-32.7.66-12.79,2.14-25.38,6.14-37.69,10.39-23.15,8-45.4,18-64.7,33.46-14.71,11.8-29.44,23.59-43.73,35.88-4,3.4-7.82,5.74-12.86,6.45-2,.28-3.9.87-5.86,1.26-6.21,1.23-12.43,2.43-18.92,3.69,0-4.78.47-9.24-.16-13.55-.45-3.14-1.52-7.26-3.78-8.81-3.48-2.38-8.17-3.06-12.42-4.23-19.78-5.41-40-6.78-60.41-6.52-2.89,0-5.78-.31-9.71-.54,1.88-1.32,2.9-2.1,4-2.77q22.5-13.92,45-27.83c32.37-19.89,64.9-39.51,97.1-59.68,22.55-14.13,45.22-28.18,66.8-43.7,26.61-19.14,52.24-39.65,78.11-59.79,19.22-15,38.12-30.33,57.26-45.38,2.48-2,2.36-4,1.9-7.09-1.83,1.39-3.22,2.39-4.55,3.46C781.48,51,763,66,744.26,80.7c-20.51,16.13-41.09,32.19-62,47.85-15.07,11.31-30.19,22.67-46.11,32.69-35.9,22.61-72.35,44.35-108.51,66.56-27.13,16.67-54,33.71-81.38,50-3.43,2.05-9,1.45-13.35.67-2.78-.51-5.08-3.61-7.6-5.54q-14-10.72-28-21.45c-1.53-1.17-3.22-2.14-5-3.34,1-1.15,1.72-1.95,2.45-2.7,8.67-8.94,17.38-17.84,26-26.81,27.67-28.74,55.16-57.66,83-86.22,16.1-16.49,32.69-32.5,49.24-48.55,21.62-21,43.47-41.74,65.12-62.7,4.65-4.5,8.88-9.44,13.31-14.18l-1-1.45c-2.13,1.14-4.68,1.85-6.32,3.48-9.09,9-17.76,18.5-26.94,27.43-12.46,12.14-25.35,23.83-37.89,35.88C545.13,86,531.12,99.81,517,113.54c-16.11,15.69-32.6,31-48.29,47.13-25.13,25.81-49.73,52.14-74.59,78.21-6.18,6.48-6.28,6.51-14.36,2.65-17.88-8.53-36.2-15.74-55.88-18.94-3.33-.55-6.64-1.14-11.19-1.92C354.83,148,396.23,76.33,440.47,5.41L432.79,5c.79.53,1.58,1,1.57,1-42.63,69.89-84.3,140.34-124.85,210.34-9.37-3.45-18.66-7.54-28.33-10.24s-20-4.13-30.41-6.19c-.42-32.36-1-64.66-1.21-96.95s0-64.57,0-97.12l-4.09-.25v195c-3.05,0-5.9-.39-8.6.06q-22.9,3.81-45.74,8c-8.05,1.5-8,1.7-11.57-5.74-.11-.24-.18-.5-.28-.75-5.2-12.85-10.36-25.72-15.63-38.55-9.13-22.21-17.94-44.55-27.59-66.53-12.93-29.46-26.6-58.59-39.76-87.95-1.4-3.13-3.05-4-6.37-3,32.6,67.35,60.7,136.54,87.94,206.09-22.76,6.48-44.07,16.86-63.06,33C79.12,204.73,44.71,163.51,5.91,125.8c-.45,5.72-.37,5.64,3.1,9.28,12.72,13.37,25.59,26.62,38,40.25C60.39,190,73.37,205,86.42,219.87c8.28,9.46,16.37,19.08,24.75,28.85C95.24,264.27,84.89,283.35,75.74,304L6.06,268.91c-1,2.93-.16,4.81,2.54,6,2.07.9,4.07,2,6.07,3C26.11,284,37.5,290.26,49,296.27c6.63,3.46,13.47,6.51,20.14,9.89,2.87,1.46,5,3.21,3,7.17-1.46,2.75-2,6-2.92,9-3.65,12.76-6.21,25.69-5.54,39.05.16,3.18-1.35,3.59-4,3.08-2.89-.56-5.8-1-8.72-1.32-14.73-1.45-29.47-2.83-44.44-4.26v4.18c9.44,1.1,18.72,2.17,28,3.27,8.73,1,17.46,2.12,26.18,3.19,2.24.27,4.12.81,4.48,3.61,1.06,8.14,2.25,16.27,3.41,24.58-10.91,2.86-22.32,5.88-33.76,8.85-8.4,2.18-16.83,4.24-25.21,6.51-1.19.32-3,1.48-3.07,2.35-.3,4.7-.14,9.44-.14,14.33,49.72-21.45,100-37,154.4-33.43.76,6.53-1.35,16.56-4.36,24-5.6,13.84-11.95,27.51-13.52,42.59a163.85,163.85,0,0,0-.87,23.64c.13,3.09-.46,4.07-3.07,4.62a25.78,25.78,0,0,0-3,1.06c-26.47,9.43-52.2,21.15-80.38,25.17-9.89,1.41-19.66,3.58-29.52,5.21-6.41,1.06-12.88,1.75-19.4,2.62v17.4c3.86-1.39,7.42-2.81,11.06-3.95,17-5.32,34.28-10.05,51.09-16,21.29-7.49,42.21-16,63.36-23.91,5.36-2,11-3.3,16.19-4.82.55,9.53-.1,19,2,27.87s6.84,17,10.38,25.4c-9.54,2.54-19.84,4.88-29.87,8.06-14.22,4.51-28.23,9.52-43.28,11-21.28,2-42.51,4.59-63.76,7-5.74.66-11.46,1.57-17,2.35V594.1c10-2,20-3.66,29.81-6.08,12-3,23.93-6.57,35.87-9.94,14.23-4,28.5-7.91,42.66-12.15,12.11-3.63,24.07-7.76,36.14-11.49,3.59-1.11,7.35-1.62,11.62-2.53-4.46,21.55-8.74,42.21-13.08,63.15-2.74-.12-5.52-.43-8.3-.36-13.52.36-27.06.59-40.57,1.3-9.72.5-19.45,1.42-29.12,2.63S52.47,621.29,43,623.3c-11.2,2.36-22.24,5.43-33.35,8.2-2.22.56-3.23,1.76-3.1,4.29.25,4.58.07,9.18.07,14,46.35-17.41,92.47-32.81,142.58-29.5-2,31.28,2,61.74,10.09,92.53-52-5.58-102,3.82-151.93,14.9V742c1.79-.48,3.44-.88,5.08-1.36,20.6-6,41.07-12.62,61.86-17.93,12.87-3.29,26.17-5.85,39.39-6.58,15.17-.83,30.47.68,45.7,1.32a4.31,4.31,0,0,1,3,2c4.26,8,8.58,16,12.36,24.29,1.61,3.5,3.33,5.1,6.87,3.57l9.07,42c-7.18,1.66-14.7,3.29-22.16,5.17-16.5,4.17-32.91,8.74-49.48,12.62a251.43,251.43,0,0,1-27.19,4.5c-8.21,1-16.51,1.54-24.78,1.73-17.79.39-35.58.44-53.37.55a44.6,44.6,0,0,1-6.11-.78v16.2c3.78-.29,7.23-.88,10.67-.79,24.63.63,48.78-3.09,72.59-8.71,21.38-5,42.49-11.21,63.75-16.77,12.72-3.33,25.48-6.45,37.89-9.59,4.39,8.63,8.27,16.53,12.46,24.26.84,1.55,2.85,2.45,4.33,3.65l.88-.73c.32,7.2.65,14.39,1,22.15-34.3,2.64-68.17,1.48-102,1.76s-67.7.52-101.66-3.18v14.46c5.41,0,10.6.13,15.78,0,8.17-.25,16.34-.59,24.51-1.07,15.1-.89,30.18-2,45.29-2.85,14.18-.76,28.37-1.25,42.55-1.86,10.7-.46,21.39-1.1,32.09-1.36,9.79-.24,19.58,0,29.37-.16,4.22-.07,8.42-.71,13-1.13-.28,5.32-.36,10.23-.83,15.1-.79,8.22-1.66,16.45-2.85,24.62-.35,2.41.19,3.35,2.4,3.39a18.75,18.75,0,0,0,4.74-.37c6.63-1.63,6.63-1.68,6.2,5,0,.93-.39,1.85-.35,2.77.21,4.34-2.44,6-6.12,7.09-4.47,1.29-8.83,3-13.31,4.22-4.06,1.15-8.18,2.59-12.33,2.81-16.18.84-32.38,1.2-48.57,1.82-12.42.48-24.86.84-37.26,1.71-8.35.59-16.69,1.72-24.95,3.08Q56.38,922,36,926.06c-8.58,1.72-17,4-25.5,6.26a4.19,4.19,0,0,0-2.57,2.86c-.26,5-.12,10.11-.12,15.63,1.66-.66,2.74-1.12,3.83-1.53,12-4.59,23.88-9.3,35.91-13.71,15.56-5.71,31.65-9.25,47.93-12.38,15-2.9,30.15-3.73,45.32-4.55,6.15-.34,12.29-1,18.44-1.1,9-.19,18.06,0,27.1,0a2.47,2.47,0,0,1-.3.61c-1.2,1.26-2.4,2.52-3.63,3.76a56.59,56.59,0,0,0-16.3,31.92c-1.77,11.82,4.53,21.24,11.57,29.76,5.42,6.54,11.94,12.1,20.65,14.24,2.78.68,5.47,1.72,8.2,2.59a2.43,2.43,0,0,1-1.68.41c-13.31-1.07-26.59-2.59-39.92-3.07-11.21-.41-22.49.06-33.7.76-11.58.71-23.13,2-34.67,3.32-15.39,1.71-30.79,3.46-46.13,5.51-14.08,1.89-28.11,4.21-42.21,6.34V1035c.79-.22,1.41-.38,2-.57,16.85-5.48,33.53-11.56,50.59-16.25,16.66-4.59,33.62-8.28,50.62-11.4a319.52,319.52,0,0,1,40-4.75c10.22-.56,20.56.66,30.84,1.34s20.78,1.64,31.17,2.58c10.1.91,20.17,2.13,30.28,2.87,7.73.57,15.54.18,23.24,1,13.66,1.39,27.35,2.82,40.86,5.19,14,2.47,27.93,5.75,41.74,9.28,31.47,8,63,16.09,93.51,27.33C454,1055.56,464.84,1060.1,475.73,1064.41ZM804,1.52l0-.42H764.61v.42Z"/>
<path fill="#FFFFFF" stroke="#000000" stroke-width="1.6368" stroke-miterlimit="10" d="M475.73,1064.41c-10.89-4.31-21.69-8.85-32.67-12.89-30.54-11.24-62-19.28-93.51-27.33-13.81-3.53-27.72-6.81-41.74-9.28-13.51-2.37-27.2-3.8-40.86-5.19-7.7-.77-15.51-.38-23.24-1-10.11-.74-20.18-2-30.28-2.87-10.39-.94-20.77-1.89-31.17-2.58s-20.62-1.9-30.84-1.34a319.52,319.52,0,0,0-40,4.75c-17,3.12-34,6.81-50.62,11.4-17.06,4.69-33.74,10.77-50.59,16.25-.61.19-1.23.35-2,.57v-21.31c14.1-2.13,28.13-4.45,42.21-6.34,15.34-2,30.74-3.8,46.13-5.51,11.54-1.28,23.09-2.61,34.67-3.32,11.21-.7,22.49-1.17,33.7-.76,13.33.48,26.61,2,39.92,3.07a2.43,2.43,0,0,0,1.68-.41c-2.73-.87-5.42-1.91-8.2-2.59-8.71-2.14-15.23-7.7-20.65-14.24-7-8.52-13.34-17.94-11.57-29.76a56.59,56.59,0,0,1,16.3-31.92c1.23-1.24,2.43-2.5,3.63-3.76a2.47,2.47,0,0,0,.3-.61c-9,0-18.07-.14-27.1,0-6.15.13-12.29.76-18.44,1.1-15.17.82-30.28,1.65-45.32,4.55-16.28,3.13-32.37,6.67-47.93,12.38-12,4.41-23.95,9.12-35.91,13.71-1.09.41-2.17.87-3.83,1.53,0-5.52-.14-10.59.12-15.63a4.19,4.19,0,0,1,2.57-2.86c8.46-2.25,16.92-4.54,25.5-6.26q20.36-4.08,40.87-7.42c8.26-1.36,16.6-2.49,24.95-3.08,12.4-.87,24.84-1.23,37.26-1.71,16.19-.62,32.39-1,48.57-1.82,4.15-.22,8.27-1.66,12.33-2.81,4.48-1.26,8.84-2.93,13.31-4.22,3.68-1.06,6.33-2.75,6.12-7.09,0-.92.3-1.84.35-2.77.43-6.71.43-6.66-6.2-5a18.75,18.75,0,0,1-4.74.37c-2.21,0-2.75-1-2.4-3.39,1.19-8.17,2.06-16.4,2.85-24.62.47-4.87.55-9.78.83-15.1-4.61.42-8.81,1.06-13,1.13-9.79.18-19.58-.08-29.37.16-10.7.26-21.39.9-32.09,1.36-14.18.61-28.37,1.1-42.55,1.86-15.11.82-30.19,2-45.29,2.85-8.17.48-16.34.82-24.51,1.07-5.18.16-10.37,0-15.78,0V841.37c34,3.7,67.82,3.46,101.66,3.18s67.69.88,102-1.76c-.34-7.76-.67-14.95-1-22.15l-.88.73c-1.48-1.2-3.49-2.1-4.33-3.65-4.19-7.73-8.07-15.63-12.46-24.26-12.41,3.14-25.17,6.26-37.89,9.59-21.26,5.56-42.37,11.73-63.75,16.77-23.81,5.62-48,9.34-72.59,8.71-3.44-.09-6.89.5-10.67.79v-16.2a44.6,44.6,0,0,0,6.11.78c17.79-.11,35.58-.16,53.37-.55,8.27-.19,16.57-.74,24.78-1.73a251.43,251.43,0,0,0,27.19-4.5c16.57-3.88,33-8.45,49.48-12.62,7.46-1.88,15-3.51,22.16-5.17l-9.07-42c-3.54,1.53-5.26-.07-6.87-3.57-3.78-8.25-8.1-16.26-12.36-24.29a4.31,4.31,0,0,0-3-2c-15.23-.64-30.53-2.15-45.7-1.32-13.22.73-26.52,3.29-39.39,6.58C53.47,728,33,734.62,12.4,740.65c-1.64.48-3.29.88-5.08,1.36V727.72c49.89-11.08,100-20.48,151.93-14.9-8.05-30.79-12.14-61.25-10.09-92.53C99.05,617,52.93,632.38,6.58,649.79c0-4.82.18-9.42-.07-14-.13-2.53.88-3.73,3.1-4.29,11.11-2.77,22.15-5.84,33.35-8.2,9.51-2,19.17-3.46,28.82-4.67s19.4-2.13,29.12-2.63c13.51-.71,27.05-.94,40.57-1.3,2.78-.07,5.56.24,8.3.36,4.34-20.94,8.62-41.6,13.08-63.15-4.27.91-8,1.42-11.62,2.53-12.07,3.73-24,7.86-36.14,11.49-14.16,4.24-28.43,8.14-42.66,12.15-11.94,3.37-23.83,7-35.87,9.94-9.79,2.42-19.78,4.06-29.81,6.08V575.64c5.59-.78,11.31-1.69,17.05-2.35,21.25-2.4,42.48-5,63.76-7,15-1.44,29.06-6.45,43.28-11,10-3.18,20.33-5.52,29.87-8.06-3.54-8.35-8.32-16.56-10.38-25.4s-1.42-18.34-2-27.87c-5.19,1.52-10.83,2.81-16.19,4.82C111,506.72,90.1,515.25,68.81,522.74c-16.81,5.92-34.05,10.65-51.09,16-3.64,1.14-7.2,2.56-11.06,3.95v-17.4c6.52-.87,13-1.56,19.4-2.62,9.86-1.63,19.63-3.8,29.52-5.21,28.18-4,53.91-15.74,80.38-25.17a25.78,25.78,0,0,1,3-1.06c2.61-.55,3.2-1.53,3.07-4.62a163.85,163.85,0,0,1,.87-23.64c1.57-15.08,7.92-28.75,13.52-42.59,3-7.43,5.12-17.46,4.36-24-54.4-3.55-104.68,12-154.4,33.43,0-4.89-.16-9.63.14-14.33.06-.87,1.88-2,3.07-2.35,8.38-2.27,16.81-4.33,25.21-6.51,11.44-3,22.85-6,33.76-8.85-1.16-8.31-2.35-16.44-3.41-24.58-.36-2.8-2.24-3.34-4.48-3.61-8.72-1.07-17.45-2.15-26.18-3.19-9.27-1.1-18.55-2.17-28-3.27v-4.18c15,1.43,29.71,2.81,44.44,4.26,2.92.28,5.83.76,8.72,1.32,2.61.51,4.12.1,4-3.08-.67-13.36,1.89-26.29,5.54-39.05.87-3.05,1.46-6.29,2.92-9,2.09-4-.09-5.71-3-7.17-6.67-3.38-13.51-6.43-20.14-9.89-11.5-6-22.89-12.23-34.33-18.35-2-1.07-4-2.13-6.07-3-2.7-1.17-3.51-3.05-2.54-6L75.74,304c9.15-20.69,19.5-39.77,35.43-55.32-8.38-9.77-16.47-19.39-24.75-28.85C73.37,205,60.39,190,47,175.33,34.6,161.7,21.73,148.45,9,135.08c-3.47-3.64-3.55-3.56-3.1-9.28,38.8,37.71,73.21,78.93,108.86,119.43,19-16.14,40.3-26.52,63.06-33C150.59,142.68,122.49,73.49,89.89,6.14c3.32-.93,5-.1,6.37,3,13.16,29.36,26.83,58.49,39.76,88,9.65,22,18.46,44.32,27.59,66.53,5.27,12.83,10.43,25.7,15.63,38.55.1.25.17.51.28.75,3.55,7.44,3.52,7.24,11.57,5.74q22.83-4.23,45.74-8c2.7-.45,5.55-.06,8.6-.06V5.64l4.09.25c0,32.55-.17,64.83,0,97.12s.79,64.59,1.21,97c10.45,2.06,20.62,3.44,30.41,6.19s19,6.79,28.33,10.24c40.55-70,82.22-140.45,124.85-210.34,0,0-.78-.51-1.57-1l7.68.4C396.23,76.33,354.83,148,312.71,220.67c4.55.78,7.86,1.37,11.19,1.92,19.68,3.2,38,10.41,55.88,18.94,8.08,3.86,8.18,3.83,14.36-2.65,24.86-26.07,49.46-52.4,74.59-78.21,15.69-16.1,32.18-31.44,48.29-47.13,14.1-13.73,28.11-27.55,42.3-41.19,12.54-12,25.43-23.74,37.89-35.88,9.18-8.93,17.85-18.39,26.94-27.43,1.64-1.63,4.19-2.34,6.32-3.48l1,1.45c-4.43,4.74-8.66,9.68-13.31,14.18-21.65,21-43.5,41.72-65.12,62.7-16.55,16-33.14,32.06-49.24,48.55-27.87,28.56-55.36,57.48-83,86.22-8.63,9-17.34,17.87-26,26.81-.73.75-1.41,1.55-2.45,2.7,1.82,1.2,3.51,2.17,5,3.34q14,10.69,28,21.45c2.52,1.93,4.82,5,7.6,5.54,4.33.78,9.92,1.38,13.35-.67,27.34-16.32,54.25-33.36,81.38-50,36.16-22.21,72.61-44,108.51-66.56,15.92-10,31-21.38,46.11-32.69,20.87-15.66,41.45-31.72,62-47.85C763,66,781.48,51,800.08,36.06c1.33-1.07,2.72-2.07,4.55-3.46.46,3.11.58,5.13-1.9,7.09-19.14,15.05-38,30.42-57.26,45.38-25.87,20.14-51.5,40.65-78.11,59.79-21.58,15.52-44.25,29.57-66.8,43.7-32.2,20.17-64.73,39.79-97.1,59.68q-22.54,13.86-45,27.83c-1.08.67-2.1,1.45-4,2.77,3.93.23,6.82.58,9.71.54,20.41-.26,40.63,1.11,60.41,6.52,4.25,1.17,8.94,1.85,12.42,4.23,2.26,1.55,3.33,5.67,3.78,8.81.63,4.31.16,8.77.16,13.55,6.49-1.26,12.71-2.46,18.92-3.69,2-.39,3.89-1,5.86-1.26,5-.71,8.91-3.05,12.86-6.45,14.29-12.29,29-24.08,43.73-35.88,19.3-15.48,41.55-25.47,64.7-33.46,12.31-4.25,24.9-8.25,37.69-10.39,10.65-1.77,21.78-.77,32.7-.66,1.24,0,2.47,2.15,3.7,3.3a25.14,25.14,0,0,1-3.16,2.88c-6,3.89-12.3,7.45-18.2,11.54-9.41,6.54-18.59,13.41-27.51,20.74,6.79-1,13.56-2.1,20.38-2.85,1.22-.14,2.6,1.22,3.91,1.89-.62,1.13-1,2.58-1.92,3.33-2.71,2.15-5.65,4-8.25,6.74l78.27-18.76v12.06c-7,1.08-14.23,2.11-21.41,3.3q-19.35,3.21-38.68,6.57c-6.93,1.21-13.8,3-20.78,3.76s-12.06,4.64-16.66,9.35c-9.35,9.55-18.77,19-27.75,28.93-4.23,4.67-7.52,10.21-10.93,15.85,45.6-7.45,89.85-21.26,136.24-24.81v13.89c-8.1,0-16.15-.58-24.09.12-17.42,1.54-34.82,3.51-52.17,5.72-9.91,1.26-19.69,3.57-29.59,4.89-3.4.46-4.92,2.57-6.4,4.76-8.13,12.09-16.4,24.12-24,36.55-5.5,9-10,18.69-15,28.06l1.24,1.07c5-3.38,10.05-6.73,15.05-10.13,3-2,5.8-4.26,8.83-6.17,2.54-1.6,4.83-4.62,8.54-2,.46.32,1.88-.59,2.77-1.07,12.2-6.67,24.11-13.95,36.65-19.9,17.22-8.18,34.88-15.44,52.43-22.92,8.33-3.55,16.83-6.7,25.73-10.22v14.6c-9,2.27-18.24,4.14-27.18,7-17.68,5.61-35.46,11.09-52.67,18C714.11,371,704.7,378.48,694.06,383c-10.44,4.46-13.72,13.35-17.68,22.5,21.38-1.52,42.62-3.59,63.9-4.39s42.84-.45,64.37,2.9v16.89c-10.7-2.64-21.32-5.67-32.11-7.82a254.48,254.48,0,0,0-28.46-3.91,232.65,232.65,0,0,0-28.91-.87c-13.33.54-26.62,1.95-39.91,3.16a4.2,4.2,0,0,0-3,2.31c-6,20.6-12.61,41.05-15.35,62.45,0,.24.08.51,0,.17,25.19,5.42,50.45,9.68,75,16.46S780.5,509,804.73,517.2v16.63c-9.16-4-17.84-7.69-26.41-11.63-15.29-7-30.35-14.59-45.8-21.25a197,197,0,0,0-42.31-13.07c-9.68-1.78-19.35-3.7-29-5.48a31.47,31.47,0,0,0-4.75,0c-.15,5.82-.39,11.5-.44,17.19-.06,7.5,0,15,0,22.5,0,10.5,2,20.69,4.9,30.71.27,1,1.94,2,3.09,2.15,11.34,1.86,22.78,3.19,34,5.38,16.46,3.2,32.82,6.91,49.19,10.54,11.56,2.56,23.13,5.16,34.6,8.1,7.69,2,15.23,4.59,23,6.95v15.87c-44.79-22.47-91.2-38.28-141.59-42.19,10.26,34.36,28.29,65.49,36.84,100.48,35.09,2.86,70.17,6.56,104.88,14.89v13c-34.42-10.4-68-22.89-104-23.16.43,14.71.86,29.75,1.33,46l102.32,9.51v10.18c-34.18-9.09-69-12.68-103.8-15.71-3.43,15.47-6.82,30.77-10.33,46.64,37.84-6.31,75.62-12.92,114.26-14.18v12.87a76.06,76.06,0,0,0-8.14-.76c-20.76.25-41.54.12-62.27,1.11-13.68.65-27.28,2.95-40.91,4.51-3.31.38-5.15,1.93-6.17,5.43a208.84,208.84,0,0,1-18.84,45.68c-1.26,2.2-2,4.68-3.22,6.9-4.43,8.15-9,16.25-13.59,24.62,6.35.59,12.82,1,19.25,1.82,11.4,1.39,22.75,3.13,34.16,4.44,10.23,1.17,20.49,2,30.75,2.88,7.7.66,15.41,1.33,23.13,1.61,5.73.21,11.48-.26,17.22-.3,9.47-.06,18.93,0,28.61,0v9.65c-.74.09-1.48.25-2.24.27-20.76.56-41.53,1-62.28,1.68-16.33.55-32.21,4.27-48.18,7.32-12.59,2.4-25.3,4.09-37.92,6.31-10.24,1.8-20.36,4.42-30.65,5.72-6.3.79-8.55,5.55-12.33,9.09-10.12,9.5-20.53,18.68-30.83,28-9.42,8.51-18.92,16.94-28.24,25.56-14.64,13.53-29,27.35-43.8,40.71-5.72,5.16-12.25,9.52-20.5,9.63-3.43,0-7.14.52-10.26-.55-7.46-2.57-14.82-2-22.42-1.29-6.49.61-13.15.41-19.06-3a38.77,38.77,0,0,1-7-5.31,10.09,10.09,0,0,0-8.63-3,29,29,0,0,1-20.13-5,14.34,14.34,0,0,1-2.44-2c-3.54-3.79-4.78-3.52-8.25.68a141,141,0,0,1-11.41,12.28c-6.33,6-14.2,8.81-22.75,9.85-.14,0-.29.08-.4,0-7.18-3.09-11.18,2.7-17.05,6.13,7.36,1.31,14,2.14,20.43,3.71,22.65,5.49,45.4,10.7,67.82,17,24.63,7,49,14.81,73.36,22.77,7.88,2.57,15.25,6.7,22.86,10.12ZM462.24,553.46a57.14,57.14,0,0,0-5.65,4.71c-13,13.73-27.44,25.44-45.15,32.65-6.91,2.82-6.9,2.85-6.56,10.22a7.31,7.31,0,0,0,0,.81c2.45,17.49.14,34.86-3.41,51.78-2.7,12.92-8.48,25.24-13.23,37.69-3.8,9.94-7.22,20.09-13.89,28.69-2,2.54-3.53,2.82-5.48.78,2.28-14.76,4.61-29.19,3-43.89-3.21,10.91-6,21.84-8.71,32.8-2.76,11.26-5.7,22.49-8,33.85A252.83,252.83,0,0,1,337,799.31c-2.12,4.59-4.37,9.16-6.1,13.91-1.49,4.1-2.4,4.64-5.88,2.25.7-4.27,1.39-8.45,2.08-12.63l-1.16-.22c-3.18,22.33-9,44-14.84,65.73-2.68,9.89-3.48,20.59-3.24,30.88.21,8.78,3.07,17.51,4.86,26.24.5,2.46,1.35,4.85,1.94,6.9,2.2-8.78,4-17.68,6.73-26.29,2.15-6.82,5.31-13.34,8.29-19.87.53-1.16,2.37-1.73,4.32-3.05.14,13.43.93,25.5,5.23,37.2,1.79-6,3.12-11.88,5.26-17.43,4.69-12.19,9.72-24.25,14.83-36.27.43-1,2.5-1.33,3.81-2,.24,1.11.88,2.31.65,3.31-2.71,11.73-1.17,23.37.49,35,2.46-8.35,4.79-16.67,6.78-25.08.62-2.64.61-5.23,3.72-6.46.69-.27,1.09-2,1.14-3.05.74-15.6,4.23-30.77,11.43-44.4s16.14-26.09,24.93-38.64c14.27-20.37,29.31-40.12,37.34-64.21,4.79-14.37,8.71-28.83,9.94-43.88.84-10.4.63-20.9,1-31.35.07-2.17.42-4.34.63-6.51l1.43-.28c.67,2,1.84,3.93,1.91,5.92.24,7.31.18,14.64.13,21.95-.13,18.88-3.9,37.07-10.25,54.8-4.93,13.76-11,27-19.35,38.95-11.54,16.56-23.64,32.74-35.23,49.27-8.5,12.12-13.9,25.56-15,40.45-.95,13.09-1.54,26.21-2.25,39.33a7.09,7.09,0,0,0,.44,3.11,38.73,38.73,0,0,0,10.42,14.46c3.14,2.67,5.51,6.3,8,9.68,1.08,1.48,1.56,3.4,2.44,5.42,5.56-7.78,5.4-9.67,2-19.75C399.89,885,397,866.81,400.05,848c3.66-22.51,9.63-43.79,25.2-61.6,13.12-15,27-28.88,44.21-39.16,7.27-4.35,14.31-9.23,22.82-11.24.05,3.41-.17,3.71-4.37,5.71A173.38,173.38,0,0,0,434,782c-11.24,12.33-20.49,25.65-24.81,42C404,843.33,400,862.75,405,882.79c2.69,10.9,6.83,21.16,14.83,29.31,1.91,1.94,5.23,4.18,7.48,3.8,8.76-1.47,17.31-4.1,26-6,7.25-1.58,14.65-4,21.9-3.8,12.32.44,24.65,2.31,36.85,4.33,11.76,2,23,7.06,35.38,5.28,7-1,14.39-.42,20.85-2.71,6.75-2.39,13.08-6.76,18.72-11.33a199.46,199.46,0,0,0,31.31-31.92,49.2,49.2,0,0,0,6.33-9.73c12.46-27.5,17.12-56.12,13.07-86.26-3.2-23.89-12.7-45.13-25.15-65.3-12.28-19.88-29.58-34.92-48.8-47.58-14.48-9.53-29.82-17.77-44.91-26.37-12.12-6.92-24.07-14.11-33.81-24.24-7.66-8-13.75-17.13-16.49-28C466.07,572.5,464.2,562.56,462.24,553.46ZM324.41,234.81l-.5.9a26.41,26.41,0,0,1,1.84,2.54c3,5.61,6.78,10.9,6.76,17.7,0,2.79-1.38,3.87-3.72,2.81-6.87-3.13-14.15-3.67-21.5-3.83-8.13-.17-16.18.31-24,4.05,4.47,1.54,8.57,3.06,12.74,4.34,3.92,1.21,8,2,11.87,3.29,1.63.54,3,1.91,4.45,2.91-1.4,1.14-2.65,2.7-4.25,3.33-3.67,1.41-7.7,1.95-11.24,3.58-10.33,4.77-18.46,12.66-26.92,20-3.11,2.7-5.51,6.22-8.45,9.63.75.1.89.17,1,.12,14-8.07,29.37-12.42,44.91-16.26,2.95-.73,4.2.54,3.89,2.86-8.74,2.37-17.37,4.14-25.57,7.09-10.27,3.7-20.49,7.78-29.17,14.8a2.7,2.7,0,0,1-3.81-3.81c5.58-6.79,11-13.76,17.22-20C275.48,285.3,282,280.6,288,275.52c-22.54-.6-45.13-1.6-67.71-1.67-19-.06-38,.81-56.94,1.73-2.31.11-5.53,2.61-6.49,4.8a34.77,34.77,0,0,0-3,13.1c-.17,12-.12,24.06.74,36,1,13.54,6.19,25.85,13.18,37.4,3.11,5.15,6.23,10.29,9.7,16,.41-3,1.78-6.14.94-8.43-1.76-4.81-4.56-9.27-7.15-13.75-5.62-9.72-10.31-20.13-10.8-31.19-.67-14.92.72-29.93,1.44-44.9.05-1.13,1.82-3.14,2.71-3.1a16.69,16.69,0,0,1,10.87,4.14A54.58,54.58,0,0,0,203.32,299c10.64,1.81,21.31,3.51,31.94,5.4a35.43,35.43,0,0,1,9.18,2.62c1.25.61,2.38,3.15,2.21,4.67-.32,3-3,3.27-5.59,3.08-3.65-.28-7.43-1.27-10.93-.66A116.68,116.68,0,0,0,211.28,319c-5,1.78-10.13,4-13.77,9.14,3.26.71,6.08,1.19,8.82,2,.83.24,1.41,1.34,2.11,2a10.35,10.35,0,0,1-2.18,1.93c-3.86,1.82-8,3.19-11.63,5.35-3.09,1.82-5.69,4.5-8.5,6.79l.58,1.06c5.5-.72,11-1.52,16.5-2.08,1.19-.12,2.47.65,3.7,1-.71,1-1.23,2.25-2.17,2.89-9.06,6.2-16.29,14.13-20.15,24.35-2.92,7.76-3.93,16.21-6.45,24.15-5.08,16-10.72,31.82-15.88,47.79-1.76,5.43-2.77,11.1-4.12,16.66l1.13.44c.56-.51,1.17-1,1.68-1.53,5.31-5.81,10.52-11.73,16-17.39.94-1,3-.87,4.52-1.26a18.41,18.41,0,0,1-1.65,4.17c-1.88,2.71-4.51,5-6,7.88-7,13.46-12.74,27.37-13.36,42.82-.31,7.66,1,15.12,3.48,23.36,3-6.69,3.42-12.3.24-18-1.62-2.93-.72-4,2.59-4.74,6.58-1.35,13.09-1.82,20.4,1.16-3.71-6.54-5.17-13.09-11.21-16.69a2.87,2.87,0,0,1-1-2.59c.48-.94,1.72-2.1,2.65-2.11,5,0,10.13-.28,15,.64,4.35.82,8.44,3.08,12.08,4.48-1.13-2.54-2.95-5.66-3.92-9-1.28-4.45-1.59-9.18-2.86-13.63-2.18-7.66-4.91-15.17-7.09-22.84a5.94,5.94,0,0,1,1.2-4.88c.68-.72,3.48-.54,4.43.28,4.81,4.19,10.72,5.22,16.59,6.45,14,2.92,25,10.17,32.81,22.31,4.7,7.31,7.31,15.35,9.07,23.7a37.24,37.24,0,0,1-.5,18.57c-1.23,4.08-3.64,6.16-7.76,6-5.6-.23-11.19-.62-16.87-.95,5.49,5.88,11.14,11.55,19.74,13.21,7.58,1.47,11.2-.78,11.1-8.56a121.15,121.15,0,0,0-2.05-21.09c-2.3-12-7.44-23.21-8.71-35.59-1.48-14.53-2-28.76,3.05-42.68a5.62,5.62,0,0,1,3.29-3c.7-.21,2.17,1.4,3,2.44,1.44,1.89,2.63,4,4.07,6.2.58-2.78,1.16-5.37,1.66-8,3.35-17.7,10.48-33.86,20.1-49a4.59,4.59,0,0,1,3.3-1.6c.71,0,1.74,1.17,2.17,2,5.08,10.39,9.87,20.94,15.17,31.23a64.72,64.72,0,0,1,7.5,25.12c.39,5.24.83,10.47,1.25,15.7l1.15.43c2.15-4.79,4.25-9.6,6.52-14.33a4.68,4.68,0,0,1,2.49-2.41,3.14,3.14,0,0,1,2.58,1.58,71.17,71.17,0,0,1,2.88,8.68c2.94,10.83,1.63,21.65-1.28,32.11A137.64,137.64,0,0,0,323.65,506c.18,3.29.5,6.83,1.87,9.73,2.06,4.38,4.42,8.84,10.28,9.63,11.27,1.5,21.94-1.07,32-5.43,11.49-5,22.69-10.74,33.65-16.82,10.42-5.79,20.9-11.21,32.45-14.34,2.23-.61,3.89-.41,4.79,2s-1,2.65-2.48,3.64c-5.52,3.77-10.87,7.79-16.09,11.58,9.46,1,18.48,1.59,27.33,3.09,4.88.82,9.54,3.09,14.2,5,1,.39,1.53,1.88,2.27,2.87a16.61,16.61,0,0,1-3.41,2.35c-1.06.4-2.41,0-3.58.16-2.88.48-5.73,1.1-8.59,1.66l-.4,1.36c10.79.36,15.07,8.14,19.23,17,5.1-11.81,10.33-22.38,11.81-34.19.5-4,0-8.21.12-12.31a20.32,20.32,0,0,1,.93-4c1.33.66,2.7,1.26,4,2,.38.23.4,1,.72,1.39,3.47,4.43,7,8.84,10.46,13.25.66-3.93,1.12-7.81.09-11.23-2.47-8.12-5.67-16-8.49-24a15.23,15.23,0,0,1-.35-3.41c1.22.09,2.58-.14,3.65.31,3.73,1.58,7.36,3.39,11.45,5.31-.14-1.3-.15-2.09-.32-2.84-2.34-10.32-8.8-18.42-14.73-26.72-9.49-13.27-19.29-26.3-29-39.42-2.47-3.35-5.05-6.62-7.53-9.95-.81-1.1-1.47-2.32-2.2-3.48,1.46-.75,2.89-2.08,4.38-2.15,5.63-.26,11.27-.11,17.32-.11-2.05-2.77-4-5.64-6.15-8.26-6.15-7.33-14.87-9.52-23.64-11.55-1.64-.38-3.23-.93-4.84-1.4,1.34-1.11,2.51-2.66,4.06-3.25,7-2.69,14.14-5.11,21.86-7.85-3.41-3.11-6.57-6.55-10.27-9.26-9.17-6.7-20.06-6.49-30.73-7.09-1.29-.07-2.52-1-3.78-1.54,1.27-1,2.4-2.56,3.85-3,2.49-.8,5.22-.77,7.78-1.38,16.54-3.94,33.08-7.83,49.57-12,11.57-2.91,23-6.25,34.59-9.31a4.61,4.61,0,0,1,3.35.29c.6.39.77,1.94.61,2.89-.43,2.61-1.06,5.19-1.75,7.75-4.51,16.71-9.17,33.37-13.55,50.1a338.92,338.92,0,0,1-18.87,52.55,4.35,4.35,0,0,0,.15,3.57c2.14,3.35,4.59,6.51,7.48,10.52,2.54-5.27,4.74-9.76,6.86-14.28,5.84-12.46,12.32-24.68,17.29-37.48,5.85-15.05,10-30.73,10.74-47,.51-10.93.77-21.88.68-32.82,0-6.41-2.89-10.16-7.86-10.73-18.29-2.08-36.57-4.41-54.92-5.58-9.8-.63-19.78.49-29.58,1.65-6.54.77-13,2.82-19.34,4.63-2.1.59-3.85,2.37-5.9,3.28-.86.38-2.09-.09-3.16-.17.32-1,.35-2.27,1-2.8a19,19,0,0,1,4.84-2.76c3.91-1.55,7.91-2.9,12.52-4.57-2.42-2.8-4.31-5.4-6.61-7.56A117.68,117.68,0,0,0,386,263.21c-17.19-8.32-34.22-17-51.41-25.3C331.45,236.38,327.82,235.82,324.41,234.81Zm50.28,477.78c8.29-17.5,17.24-35,21.75-53.79,5-21,7.25-42.64,3.83-64.58-3.08.76-6.25,2-9.49,2.23q-12.81.84-25.66.9c-7,0-13.93-.5-20.9-.62-1,0-2.07.88-3.61,1.59-3-2.11-6.64-.65-9.71,1.34-10.78,7-22.09,12.4-35.09,13.57-9.76.87-19-1.29-26.24-7.63a125.36,125.36,0,0,0-27-18.1c-7.59-3.78-7.65-3.65-12,3.5-.35.57-.81,1.07-1.15,1.65-8.57,14.4-16.47,29.23-20.41,45.57-3,12.26-4.21,24.94-6.17,37.44-.39,2.44-.57,4.91-.85,7.36,2.55-2.64,3.94-5.58,5.87-8.11q11.43-15,23.22-29.74c1.05-1.31,3.24-1.71,4.91-2.54l1.64,1.09c-17.72,35.38-23.92,71.38-6.89,108.15,1.79-6.13,3.46-12.8,5.7-19.27,3-8.56,6.29-17,9.73-25.38.5-1.22,2.51-1.82,3.82-2.71.62,1.16,1.74,2.3,1.78,3.48.25,6.62-.88,13.5.53,19.83,4,17.91,8.28,35.8,13.76,53.3A88.44,88.44,0,0,0,279,806.3c7.76,10.65,16.52,20.55,23,32.17,1.81,3.28,4.36,6.16,6.76,9.49a16.47,16.47,0,0,0,1-2.41c3-13.94,6-27.87,8.94-41.82,1.42-6.77,3-13.53,3.87-20.39.31-2.55,1-3.77,3.21-3.87,2.9-.13,2.22,2.3,2.51,4,1,6.17,2.12,12.34,3.26,19,1.73-3.77,3.32-7.11,4.8-10.5,9.45-21.65,13.92-44.73,19.52-67.49,4.49-18.24,9-36.49,13.58-54.7.28-1.12,1.67-2,2.54-2.94.88,1,2.32,1.81,2.52,2.89.92,4.83,2.12,9.75,2,14.61C376.31,693.76,375.34,703.17,374.69,712.59ZM722,237c-.08-.26-.15-.52-.23-.78-11,3-22.12,5.68-33,9.11-22.11,7-42.35,17.85-61,31.54-10.87,8-21.78,16.14-31.46,25.47C580.3,317.83,567.52,336,557,355.77a343.21,343.21,0,0,0-21.71,49.11c-5.69,16.59-7.55,33.76-7.29,51.22.06,3.57,0,7.15,0,10.73a53.06,53.06,0,0,0,3.17-11.28c1.82-11.15,6.6-21.11,12.23-30.72.59-1,2.39-1.32,3.63-2,.37,1.22,1.22,2.52,1,3.66-1.54,10.26-3.36,20.48-4.9,30.74a149.94,149.94,0,0,0,1,49.16c1.65,9.16,3.71,18.23,5.78,28.24.82-6.63,1.39-12.2,2.21-17.74,2.95-20.18,10.53-39,16.63-58.34.3-.94,2.23-1.36,3.4-2,.54,1.18,1.5,2.34,1.53,3.53.05,2.38-.57,4.77-.62,7.16-.35,17.62,2.14,34.92,6.19,52,2.09,8.76,4.82,17.37,7.25,26a9.29,9.29,0,0,0,1.82-4.37c1.92-10.73,3.41-21.56,5.93-32.15.94-4,1.34-9.16,6.55-11.19,2.68,10.35,4.56,20.79,8.16,30.6s9,19.21,13.81,29.16a17,17,0,0,0,1-2.46c2.47-12.69,4.74-25.41,9.92-37.39a31.15,31.15,0,0,0,2.78-10c.27-4.1,1.83-5.45,5.58-4.52,1.85-32.51,10.71-63.42,20.19-95.12a16.1,16.1,0,0,0-2.12,1.21c-12,12.12-23.4,24.63-29.62,41a4.34,4.34,0,0,1-3.55,2c-.81-.06-2.25-2.16-2.11-3.17a151.08,151.08,0,0,1,11.6-40.54c6.67-15.14,14.66-29.71,22.28-44.43,3-5.84,6.58-11.4,9.9-17.08-9.83,7.08-20.79,12.74-27.72,23.26-.57.87-2.26,1-3.44,1.47-.44-1.19-1.44-2.49-1.23-3.56.72-3.74,1.39-7.61,2.92-11.06,4.86-10.91,9.31-22.12,15.42-32.32,5.3-8.83,12.27-16.76,19.18-24.49,7.45-8.32,15.68-15.94,24.2-24.49-4.41,1.84-8.33,3.11-11.9,5-12.42,6.72-23,15.9-33.61,25.14-1,.85-2.66.88-4,1.28a18.65,18.65,0,0,1-.26-4.51c.19-1.09,1.16-2.08,1.87-3.05a187.72,187.72,0,0,1,43-41.74C702.81,251,712.39,243.94,722,237ZM638.39,516.82l-.78-.26c-2.22,7.49-4.79,14.91-6.54,22.51s-2.65,15.46-4,23.18a23.24,23.24,0,0,1-1.69,4.33c-1.32-.8-3.26-1.27-3.87-2.44-3.23-6.14-5.92-12.56-9.18-18.68-6.19-11.6-11.18-23.62-13.83-37.23a20.39,20.39,0,0,0-1.1,2.8c-3.07,15.26-7.08,30.43-4.57,46.27.14.91-1.09,2.61-2,2.94-.72.25-2.12-1-3-1.8-.48-.49-.34-1.54-.67-2.26-9.2-19.95-13.42-41.21-16.45-62.76-1-7.16-1.39-14.41-2.13-22.34-2.14,6.7-4.1,12.75-6,18.83-4.44,14.17-7.86,28.55-7.88,43.49,0,4.51,1.06,9,1.35,13.52.08,1.21-.89,2.48-1.37,3.72-1.18-.58-2.69-.88-3.46-1.81a10.74,10.74,0,0,1-2-4.34c-2.8-11.65-6.17-23.21-8.05-35a214,214,0,0,1-3.06-36.14c.17-12.41,2.43-24.8,3.77-37.2a25.54,25.54,0,0,0-2,4.15c-1.93,6.78-3.91,13.56-5.52,20.41-2.11,9-5,18-5.54,27.18a99,99,0,0,0,2.19,27.5c3.84,17.34,8.79,34.44,13.56,51.56,2.79,10,6.43,19.81,9.12,29.85,4,15.05,7.48,30.27,11.46,45.34.54,2,2.52,3.91,4.28,5.27,3.27,2.52,7,4.42,10.31,6.9,13.35,10.06,22,24,30.32,38,6.13,10.42,10.87,21.67,16.47,32.42,9.27,17.8,14,36.88,15.53,56.7.93,12,.78,24,1.06,36.06.09,3.9,0,7.81,0,12.89a140.4,140.4,0,0,0,18.51-39q8.69-29.31,16.55-58.85c4.25-16,7.43-32.27,6.83-49-.52-14.64-3.73-28.84-7.89-42.73-5.54-18.51-12.4-36.62-18.16-55.07C651.83,562.85,645.23,539.8,638.39,516.82ZM316.68,579c5.32,3.89,11.1,8.21,17,12.34.81.57,2.28.43,3.41.28,2.57-.35,5.11-1.28,7.68-1.31,11.62-.15,23.27.45,34.86-.22a94.37,94.37,0,0,0,36.81-10c6.92-3.46,12.86-9,18.92-14,11.16-9.23,17.39-21.62,22.18-36.12-5.06-1.69-9.92-3.18-14.68-5-1.41-.53-2.5-1.93-3.73-2.93,1-.9,1.85-2.11,3-2.65,3.37-1.55,6.87-2.82,10.31-4.2,0-.34.08-.68.13-1-3-.81-6-1.83-9-2.38-9.56-1.72-19.09-2.31-28.51,1-1.17.42-2.73-.27-4.1-.45.47-1.44.53-3.31,1.49-4.25,4.16-4.08,8.59-7.88,13.66-12.44-3,1.22-5.26,1.95-7.35,3-15.81,8-31.49,16.36-47.42,24.14-10.07,4.91-21,6.46-32.19,7.18-11.82.76-17.77-8.83-18.82-16.75-2.3-17.31-.17-34.25,3.73-51.18,1.84-8,2.19-16.37,2.68-24.6.19-3.34-1-6.76-1.6-10.14-4.2,5.87-8,11.33-12,16.6-.64.83-2.43.79-3.69,1.15-.28-1-1-2.13-.79-3.06,2.69-13,.84-25.79-3.63-38-2.83-7.71-7.39-14.79-11.15-22.16-2.33-4.55-4.63-9.12-7.1-14-.72.95-1.15,1.45-1.5,2a122.15,122.15,0,0,0-15.54,39.27c-1.9,8.84-4.18,17.74-1.11,26.88.3.91-1.11,2.4-1.73,3.63-1.21-.93-3.1-1.61-3.52-2.82-1.45-4.13-2.28-8.47-3.57-12.67a58.13,58.13,0,0,0-2.86-6.4,13.87,13.87,0,0,0-1.11,1.52,14.26,14.26,0,0,0-.67,1.83,74.14,74.14,0,0,0-1.38,31c1.1,7.23,2.41,14.45,4.12,21.55,1.95,8.15,5.15,16.05,6.48,24.27,1.17,7.28.61,14.85.6,22.29,0,4-2.94,5.23-6.39,5.79-10.82,1.79-19.86-1.92-27.35-9.38-6.34-6.33-12.14-13.2-18.24-19.77-5.68-6.11-12-11.56-20.08-14.06-3.09-1-6.61-.56-9.71-.76,3.18,6.67,6.21,12.67,8.89,18.83.68,1.57.26,3.62.35,5.46-1.75-.5-3.85-.53-5.18-1.56-4.86-3.77-13.34-5.23-18.11-2.66.81,3.6,1.86,7.19,2.4,10.86a50.48,50.48,0,0,0,7.65,20,80.71,80.71,0,0,0,28,26.5,6.7,6.7,0,0,0,4.42.31c10.27-2.36,20.49-4.87,31.19-7.45.15-.36.58-1.31.95-2.29s.68-1.93,1.09-3.11a125.48,125.48,0,0,0-45-3.61c10.3-3.13,20.65-2.66,31.1-1.6,7.19.74,14.25,3.73,21.69,1.64.66-.19,1.57.52,2.92,1L252.63,547c.56,1.86,1.09,3.63,1.63,5.4l-.57-.06,2.82,3.09-.75,1c-1.38-.27-2.76-.65-4.15-.79s-2.84,0-4.57,0c.56,3.47,1,6.42,1.57,9.75a62.81,62.81,0,0,1,7.42-2.32c.92-.17,2.06.8,3.09,1.25a10.14,10.14,0,0,1-2.54,1.63c-1.8.5-3.68.69-6.22,1.14,4.9,5,9.94,7.83,16,8.32,7,.58,15.84-9.64,14.58-16.49a3.69,3.69,0,0,0-.91-1.55c-4.65-5.43-9.81-10.5-13.83-16.37-4.19-6.11-1.06-15.74,5-17.26,7.54-1.91,15.2-3,23-2,5.47.72,13.16,5.31,10.79,12a26.65,26.65,0,0,1-4.31,8.42c-4.34,5.08-9.22,9.71-14.09,14.74,0,2.42.11,5.74,0,9.05-.23,5.72,2.79,9.56,7.53,11.74,4.95,2.27,10.18,2.13,15.6-.65a17.43,17.43,0,0,1-2.42-2.73,22.52,22.52,0,0,1-1.22-3.58c1.09.45,2.42.65,3.2,1.42,1,1,1.59,2.42,2.79,4.39,3.59-4.66,6.12-8,8.65-11.26l-.65-1a56,56,0,0,1-6.57.54c-1.19,0-2.35-.84-3.53-1.3,1-.77,2-2.06,3.06-2.19a73.16,73.16,0,0,1,8.64-.11l-2.18-7.77-10,3.43a11.84,11.84,0,0,1-.63-2.6c2.85-1.46,5.78-2.77,7.72-3.66l1.32-5.45,5.53,3.67c14.83-3.58,31-6.66,47.59-6.28l-47.06,8.74c.88,3.09,1.84,5.33,2.07,7.64s1.22,2.84,3.28,3a93.27,93.27,0,0,1,13.48,1.76c8.09,2,16,4.53,24.06,6.84-.14.51-.29,1-.43,1.52-3.44-.93-6.84-2.06-10.32-2.74q-13.33-2.6-26.75-4.76a4.85,4.85,0,0,0-4,1.4C322.35,570,319.75,574.27,316.68,579ZM266.56,928.81c1.61-6.35,2.88-12.34,4.68-18.16,2.3-7.39,4.93-14.68,7.68-21.91.46-1.21,2.24-1.92,3.4-2.86a19.8,19.8,0,0,1,1.23,4c.17,1.71-.39,3.51-.15,5.2,1.76,12.53,3.39,25.08,5.58,37.54.91,5.16,3.08,10.09,4.68,15.13l1.29-.25c1-5.07,2.14-10.11,2.83-15.22,1.62-11.9,3.29-23.8,4.37-35.75a121.4,121.4,0,0,0,.12-21.23A90.54,90.54,0,0,0,293.73,845c-4.75-10.26-9-20.94-15.21-30.31A170,170,0,0,1,255.18,761c-3.54-14.43-7.81-28.72-8.6-43.8a3.56,3.56,0,0,0-1.09,1.5c-5.94,13.8-10.67,27.91-11.34,43.12-.05,1.1-1.35,2.14-2.07,3.21-1.08-1-2.79-1.7-3.16-2.87-3.16-10-6.28-20.1-9-30.26-3.28-12.23-4.76-24.71-2.48-37.29,1.4-7.72,3.38-15.35,5.39-22.94,1.55-5.85,3.55-11.59,5.35-17.37-4.9,5.55-9.81,11.09-13.68,17.29-3.68,5.9-6.2,12.53-9.41,18.75A5.42,5.42,0,0,1,202,693c-.6.16-2.3-1.46-2.44-2.42-.58-4.18-1.37-8.47-.95-12.6.72-7.14,2.31-14.18,3.5-21.27,1-5.91,1.54-11.92,3-17.72,3.61-14.65,10.94-27.76,17.7-41.08,2.56-5,5.59-9.85,8.51-14.94-3-1.11-5.35-2.08-7.76-2.79-1.31-.38-2.93-.8-4.08-.36-3.23,1.24-6.31,2.87-9.41,4.43-4.08,2-8.12,4.17-12.18,6.25l-.72-1.37,20.33-11.46c-14-5-26.27-12.47-38.33-21.29-5.92,17.13-11.6,33.69-12.45,51.29s-3.63,35.06-.9,52.72c2.42,15.7,10.24,45.41,13.81,50.26.79-6.39,1.37-12.51,2.41-18.55.26-1.51,2-2.76,3-4.13.82,1.44,2.17,2.81,2.38,4.33,1.36,10,1.71,20.25,3.85,30.09,3.42,15.74,7.88,31.25,12.11,46.79,1.78,6.54,4.09,12.93,6.15,19.39l1.22-.37c.3-5.72.46-11.46,1-17.16.13-1.27,1.6-2.41,2.46-3.62.8,1,2.15,1.92,2.3,3,.73,5.15.85,10.39,1.72,15.51A429.09,429.09,0,0,1,223.93,842c.18,5.25.61,10.48.93,15.72.45-.46.35-1.15.63-1.39,1.13-1,2.38-1.87,3.59-2.79.68,1.14,1.75,2.21,2,3.43q1.86,10.39,3.36,20.86c.49,3.41.64,6.87,1,10.88.66-.88,1-1.16,1.09-1.5,1.15-5.87,2.16-11.78,3.49-17.61.23-1,1.79-1.73,2.73-2.58.69.91,1.85,1.74,2,2.73.47,3.28.48,6.62.82,9.93,1,9.51,2,19,3,28.67.59-1.52,1.21-3.06,1.77-4.62,1.7-4.76,3.22-9.59,5.16-14.25.51-1.21,2.3-1.87,3.5-2.79a19.07,19.07,0,0,1,1.72,3.52,16.69,16.69,0,0,1,.06,3.61A126.91,126.91,0,0,0,266.56,928.81Zm38.08-707.58c-3.18-1.62-6.87-3.72-10.73-5.42-11-4.82-22.53-7.47-34.32-9.12-6.7-.94-13.49-2.05-20.2-1.85-7.26.22-14.53,1.57-21.7,2.93-18.85,3.58-37.71,7-55.69,14.22a145.17,145.17,0,0,0-48.74,31.62c-14.65,14.45-24.09,32.21-32.32,50.7-9,20.2-13.65,41.32-11.61,63.52.78,8.47,2.51,16.86,4,25.25.44,2.5,1.57,3.68,5,3.26,16.43-2,32.9-3.78,49.41-4.88,10.74-.72,21.56-.14,32.94-.14a44.14,44.14,0,0,0-1.3-4.54c-2.9-6.76-5.66-13.58-8.85-20.19-9.39-19.45-15.23-39.62-12.81-61.46,1.59-14.35,3.82-28.58,12-41a14.86,14.86,0,0,1,2.85-3.18c3.51-2.94,7.54-2.69,11.93-2.61,16.87.3,33.75-.12,50.63,0,10.26,0,20.52.58,30.78.83,4.35.1,8.71,0,13.07,0a4.79,4.79,0,0,0-2.55-1.5c-2.55-.55-4.6-2.16-3.82-4.61.7-2.16,2.63-5,4.54-5.52,17.14-4.38,34.51-7.06,52.29-4.48a17.36,17.36,0,0,0,3.68-.38c-3.56-3.35-6.16-6.85-9.64-8.79-3.91-2.19-3.58-5.57-3.47-8.59C300,223.89,302.94,222.62,304.64,221.23ZM458.31,983.12c-1.6-3.62-3.58-6.63-4.27-9.91-2.71-12.92,2.75-23.78,9.4-34.2a3.94,3.94,0,0,1,2.73-1.38c.9-.06,1.85.64,2.78,1a12.43,12.43,0,0,1-1.13,2.35c-1,1.34-2.56,2.4-3.24,3.88A97.82,97.82,0,0,0,459,958.58c-2.43,8.5-1.39,16.62,5.73,22.65,7.33,6.2,16.15,6.79,24.42,3,10.85-5,21-11.48,29-20.67,2.9-3.32,5.54-6.9,8.71-9.92,8.13-7.74,16.5-15.21,24.74-22.82,3.46-3.2,6.84-6.49,11-10.41h-4.13c-8.91-.1-17.95.73-26.69-.53-13.28-1.93-26.28-5.83-39.55-7.88-7.94-1.22-16.21-.94-24.29-.55-9.41.45-17.88,4.5-26.57,7.91-9,3.54-18.61,5.67-28,8.14-7.75,2-9.71,4-11,11.69a51.17,51.17,0,0,1-2.52,10c-2.74,7.07-1.93,13.48,3.3,18.9,5.74,5.94,12.62,8.66,21,5.78-4-11.13-4.28-22.21-.22-33.11,1-2.71,3.75-4.79,5.84-7,.29-.31,1.69-.09,2.07.34s.47,1.81.11,2.11c-4.76,4.09-5.32,9.85-5.71,15.4-1,13.81,1,23.09,13.86,29.67C445.85,984.24,452,985.41,458.31,983.12ZM243.82,890.7l-1.33-.23a9.77,9.77,0,0,0-.89,1.69c-2.75,9.09-5.45,18.2-8.22,27.29-2,6.48-2.62,6.48-9.41,4.61-4.26-1.18-9.24-2.57-13.22-1.45-11.49,3.24-20.52,10-24.28,22.14-3.51,11.29.14,24,8.56,30.37.53-9-.68-18.34,4-26.84a42.89,42.89,0,0,1,18.18-17.54c2.08-1.1,4.46-1.62,5.84,1.28-2.77,1.31-5.3,2.13-7.41,3.56-10.39,7.07-16.41,16.69-15.94,29.56.17,4.71.22,9.83,2.05,14,3.52,8,11.79,7,19.18,8.61-.78-2.85-1.72-5-1.89-7.16-1.15-15,5.11-26.66,16.4-36,2.36-2,4.95-2,8.21.35-1.43.89-2.37,1.58-3.4,2.08-1.25.61-2.86.74-3.84,1.61-6.22,5.52-10.77,12.13-12.34,20.45-3.2,17,7.45,27.78,22.16,26.64a159.36,159.36,0,0,0,30.9-6c7.29-2.06,12.48-8,14.9-15.12,2.81-8.23,1.69-16.63-1.55-24.79-2.41-6.06-4.84-12.21-6.18-18.55-2.38-11.26-3.94-22.69-5.76-33.57-4.38,12.5-9.45,25.52-7.29,40,.19,1.29-.75,2.74-1.17,4.12-1.32-.82-3.44-1.35-3.85-2.49-2.55-7.13-5.05-14.32-6.91-21.65-1.47-5.77-2-11.78-2.95-17.68l-1-.15c-1.95,7.13-3.79,14.3-5.95,21.36-.4,1.34-2.07,2.28-3.15,3.41-.81-1.27-2.3-2.52-2.32-3.8C243.73,910.78,243.82,900.74,243.82,890.7Zm141.85,72.24c5.33-4.92,7.61-10.69,9.83-16.61,4-10.77,3.2-23.9-10.08-32.13a24.86,24.86,0,0,1-3.24-2.33c-6.47-5.6-10.84-12.09-9-21.24.49-2.43.72-4.91,1.07-7.37a1.88,1.88,0,0,0-.9,1.26c-3.18,10.78-6.16,21.57-4.22,33,.16,1-1.31,2.21-2,3.32-.9-.57-2.42-1-2.59-1.74-2-8.55-4-17.09-5.44-25.73-.87-5.14-.8-10.44-1.23-16.84-2.42,5.88-4.51,10.62-6.34,15.47-5,13.32-11,26.49-7.56,41.4.16.72-1.26,2.39-2.18,2.61A3.34,3.34,0,0,1,339,934.3q-3.92-14.44-7.41-29c-.77-3.23-1-6.6-1.58-11-8.64,16.62-11.69,33.2-11.32,50.57,0,1.39-1.2,2.82-1.85,4.23-.95-1.16-2.39-2.18-2.77-3.5-2.73-9.34-5.24-18.74-8.13-29.27a22.73,22.73,0,0,0-.85,3c-.81,8.79-1.71,17.57-2.36,26.37-.68,9.34-1.46,18.69-1.61,28-.16,10.47,6.39,19.91,15.47,21.93,12.8,2.84,30.14-3.07,30-20.46-.07-7.65-1.05-15.38-9.34-19.31a25.93,25.93,0,0,1-2.71-1.67c3.05-3.12,3.24-2.91,5.91-1.54,9.95,5.13,14.29,25,8.27,34.65a24.43,24.43,0,0,0-1.5,3.64c9.76-1.69,23.28-9.83,29-16.75,9.8-12,2.8-32.57-11.3-39.45-1.33-.64-3.28-2.87-3-3.46,1.17-2.54,3.09-.94,4.66-.05C378.53,938.14,385.57,948.12,385.67,962.94ZM545.35,632.11c-4.84-15.17-9.24-29.84-14.2-44.3-8.84-25.72-15-52-16.43-79.19-.35-6.73-4.71-9.23-7.83-13.92a7,7,0,0,0-.5,1.5c1.32,13.13.17,26.16-1.94,39.11-.18,1.16-1.93,2.06-3,3.09a17.39,17.39,0,0,1-2.52-2.8c-2.9-5.17-5.67-10.4-8.82-16.21-3.23,7.88-5.51,14.87-8.86,21.31-5.7,11-5.18,21.88-.28,32.65,7.9,17.36,17.65,33.39,35.08,43C525.75,621.69,535.52,626.83,545.35,632.11Zm75.9,251.7L622,885l119.29-22.26a168.13,168.13,0,0,0-17.17-2.1c-8.38-.78-16.76-1.54-25.11-2.53-16.39-2-32.76-4.13-49.17-6a5.71,5.71,0,0,0-4.26,1.85c-4,4.78-7.72,9.86-11.66,14.72C629.75,873.8,625.47,878.78,621.25,883.81ZM500.22,330l-42.51,11c7.92,6,11.2,9.72,15.4,18.45.86,1.79.5,4.16.7,6.27a60.44,60.44,0,0,1-6-.36c-2.7-.41-5.36-1.1-9.11-1.89a13.2,13.2,0,0,0,1.38,1.62c12.37,7,18.87,18.41,23.31,31.24.5,1.42-.76,4.13-2,5.36-2.66,2.54-5.81,1.88-8.78,0A30.92,30.92,0,0,0,469,400l-.56.79c3.56,5,7.11,10.07,11.1,15.72C490.49,388.3,496.78,359.83,500.22,330ZM233.56,573.28c3.49,1.66,6.16,3.09,9,4.22a62.57,62.57,0,0,1,27.6,21.18c6.47,8.83,15.42,11.29,25.23,10.61,14.1-1,25.74-8.51,37.51-16.31-4.68-3.14-9.28-6.06-13.69-9.25-3.66-2.64-7.16-4.55-11.48-1.29a4.59,4.59,0,0,1-3.09.5c-6.16-.91-11.33,1.1-16.34,4.59-3.86,2.7-10.47,1.08-13.94-2.11-2.72-2.51-5.84-5.74-9.14-6.23-6.91-1-12.16-4.37-17.35-8.48a6.44,6.44,0,0,0-4.83-1.14C240.05,570.29,237.29,571.76,233.56,573.28Zm53.63-49.09c-6.19.94-11.83,1.89-16.33,6.31-1.93,1.89-2.86,4.08-1.32,6.44,3,4.62,6.36,9,9.48,13.6,1.73,2.53,3.92,2,6,.82a33.2,33.2,0,0,0,15-18c.77-2.21.8-4.63-2.07-5.64C294.39,526.49,290.78,525.37,287.19,524.19ZM193.77,317.13l-22.28-12.84c-4.91,16.11-5.11,31.22,1.49,45.43l13.36-16.84c-2.17-.17-3.67.08-4.78-.46-1.43-.7-3.1-1.82-3.62-3.16-.41-1.06.44-3,1.33-4.05a13.88,13.88,0,0,1,4.19-2.9C186.6,320.64,189.82,319.1,193.77,317.13Zm42.15,145.55c-2.58-1.53-5-3.43-7.8-4.45a8.58,8.58,0,0,0-6.21,0c-7.86,4-11.42,13.46-9.75,22.73,1.18,6.57,5.25,10.85,9.69,15.14,4.62,4.47,9.6,5.61,15.66,3,8.55-3.67,11.13-10.13,6.78-17.95-4.17,10.75-12.34,11.65-18.58,9.15-6.81-2.72-9.56-10.67-6.56-19C221.29,465.33,229,461.61,235.92,462.68ZM540.21,345.41c2.55.61,4.6-.62,6.17-3.48A86.85,86.85,0,0,1,553,331.45c4.88-6.48,10-12.74,15.44-19.56-8.7,1.85-16.72,3.76-24.83,5.17-2.53.44-3.46,1.14-3.44,3.66C540.26,328.83,540.21,336.94,540.21,345.41Zm-298,209.52-30.26,6.56.18,1.2c9.2,4.91,17.87,12.81,29.36,5,.3-.2,1,0,1.13-.25.52-.77,1.32-1.69,1.24-2.47C243.51,562,242.88,559,242.18,554.93ZM512.5,459.32c1.63-14.87,3.39-31,5.22-47.63-4.91,10-9.67,19.62-14.28,29.3-.33.69.21,2,.66,2.83C507.05,449.38,510.09,454.89,512.5,459.32ZM205.29,474l1.42.09c.22-9.18,5.45-15.19,13.51-20.21l-19.45-7.75C202.36,455.92,203.82,465,205.29,474Zm83.58,106.81-7.15-8.9L274.54,578C281,585.93,282.39,586.2,288.87,580.81Zm12.64,426.28-10.29-8.28L279,1004.87a55.29,55.29,0,0,0,11.46,1.6C294.22,1006.7,298,1006.9,301.51,1007.09ZM187.23,355l-11.3,1.15c1.3,3.37,2.44,6.3,3.73,9.66Zm61.22,141.44-11,8.27C248.61,505.86,249.16,505.46,248.45,496.42Zm-10.74-22.68c-6.77-1.05-7.84-.38-8.15,5.34l7.66,1C237.41,477.55,237.55,475.74,237.71,473.74ZM675.56,334c-5.25.65-11.92-1.23-14.6,6.89Z"/>
<path fill="#FFFFFF" stroke="#000000" stroke-width="1.6368" stroke-miterlimit="10"d="M0,.81H4.11A72.45,72.45,0,0,0,3.05,9.57c0,37.29,0,74.58,0,111.87q0,72.24,0,144.46Q3,312,3,358q-.06,49.26-.17,98.5C2.72,504.76,2.45,553,2.42,601.3q-.09,157.55,0,315.11c0,39.16.16,78.32.23,117.49,0,1.88.74,4.35-2.68,3.94Z"/>
<path fill="#FFFFFF" stroke="#000000" stroke-width="1.6368" stroke-miterlimit="10"d="M804,1.52H764.61V1.1H804Z"/>
<path fill="#FFFFFF" stroke="#000000" stroke-width="1.6368" stroke-miterlimit="10" d="M462.24,553.46c2,9.1,3.83,19,6.3,28.82,2.74,10.86,8.83,20,16.49,28,9.74,10.13,21.69,17.32,33.81,24.24,15.09,8.6,30.43,16.84,44.91,26.37,19.22,12.66,36.52,27.7,48.8,47.58,12.45,20.17,22,41.41,25.15,65.3,4,30.14-.61,58.76-13.07,86.26a49.2,49.2,0,0,1-6.33,9.73A199.46,199.46,0,0,1,587,901.67c-5.64,4.57-12,8.94-18.72,11.33-6.46,2.29-13.89,1.71-20.85,2.71-12.37,1.78-23.62-3.33-35.38-5.28-12.2-2-24.53-3.89-36.85-4.33-7.25-.25-14.65,2.22-21.9,3.8-8.7,1.9-17.25,4.53-26,6-2.25.38-5.57-1.86-7.48-3.8-8-8.15-12.14-18.41-14.83-29.31-5-20-.94-39.46,4.18-58.78,4.32-16.32,13.57-29.64,24.81-42a173.38,173.38,0,0,1,54-40.35c4.2-2,4.42-2.3,4.37-5.71-8.51,2-15.55,6.89-22.82,11.24-17.18,10.28-31.09,24.15-44.21,39.16-15.57,17.81-21.54,39.09-25.2,61.6-3.06,18.83-.16,37,5.79,54.77,3.36,10.08,3.52,12-2,19.75-.88-2-1.36-3.94-2.44-5.42-2.48-3.38-4.85-7-8-9.68A38.73,38.73,0,0,1,383,892.94a7.09,7.09,0,0,1-.44-3.11c.71-13.12,1.3-26.24,2.25-39.33,1.08-14.89,6.48-28.33,15-40.45,11.59-16.53,23.69-32.71,35.23-49.27,8.35-12,14.42-25.19,19.35-38.95,6.35-17.73,10.12-35.92,10.25-54.8.05-7.31.11-14.64-.13-21.95-.07-2-1.24-4-1.91-5.92l-1.43.28c-.21,2.17-.56,4.34-.63,6.51-.32,10.45-.11,20.95-1,31.35-1.23,15.05-5.15,29.51-9.94,43.88-8,24.09-23.07,43.84-37.34,64.21-8.79,12.55-17.78,25.14-24.93,38.64s-10.69,28.8-11.43,44.4c-.05,1.07-.45,2.78-1.14,3.05-3.11,1.23-3.1,3.82-3.72,6.46-2,8.41-4.32,16.73-6.78,25.08-1.66-11.65-3.2-23.29-.49-35,.23-1-.41-2.2-.65-3.31-1.31.64-3.38,1-3.81,2-5.11,12-10.14,24.08-14.83,36.27-2.14,5.55-3.47,11.41-5.26,17.43-4.3-11.7-5.09-23.77-5.23-37.2-2,1.32-3.79,1.89-4.32,3.05-3,6.53-6.14,13-8.29,19.87-2.72,8.61-4.53,17.51-6.73,26.29-.59-2-1.44-4.44-1.94-6.9-1.79-8.73-4.65-17.46-4.86-26.24-.24-10.29.56-21,3.24-30.88,5.87-21.72,11.66-43.4,14.84-65.73l1.16.22c-.69,4.18-1.38,8.36-2.08,12.63,3.48,2.39,4.39,1.85,5.88-2.25,1.73-4.75,4-9.32,6.1-13.91a252.83,252.83,0,0,0,18.25-55.76c2.31-11.36,5.25-22.59,8-33.85,2.69-11,5.5-21.89,8.71-32.8,1.57,14.7-.76,29.13-3,43.89,2,2,3.52,1.76,5.48-.78,6.67-8.6,10.09-18.75,13.89-28.69,4.75-12.45,10.53-24.77,13.23-37.69,3.55-16.92,5.86-34.29,3.41-51.78a7.31,7.31,0,0,1,0-.81c-.34-7.37-.35-7.4,6.56-10.22,17.71-7.21,32.15-18.92,45.15-32.65A57.14,57.14,0,0,1,462.24,553.46Z"/>
<path fill="#FFFFFF" stroke="#000000" stroke-width="1.6368" stroke-miterlimit="10" d="M324.41,234.81c3.41,1,7,1.57,10.21,3.1,17.19,8.31,34.22,17,51.41,25.3a117.68,117.68,0,0,1,29.74,20.16c2.3,2.16,4.19,4.76,6.61,7.56-4.61,1.67-8.61,3-12.52,4.57a19,19,0,0,0-4.84,2.76c-.66.53-.69,1.84-1,2.8,1.07.08,2.3.55,3.16.17,2.05-.91,3.8-2.69,5.9-3.28,6.38-1.81,12.8-3.86,19.34-4.63,9.8-1.16,19.78-2.28,29.58-1.65,18.35,1.17,36.63,3.5,54.92,5.58,5,.57,7.81,4.32,7.86,10.73.09,10.94-.17,21.89-.68,32.82-.77,16.28-4.89,32-10.74,47-5,12.8-11.45,25-17.29,37.48-2.12,4.52-4.32,9-6.86,14.28-2.89-4-5.34-7.17-7.48-10.52a4.35,4.35,0,0,1-.15-3.57,338.92,338.92,0,0,0,18.87-52.55c4.38-16.73,9-33.39,13.55-50.1.69-2.56,1.32-5.14,1.75-7.75.16-.95,0-2.5-.61-2.89a4.61,4.61,0,0,0-3.35-.29c-11.55,3.06-23,6.4-34.59,9.31-16.49,4.16-33,8.05-49.57,12-2.56.61-5.29.58-7.78,1.38-1.45.46-2.58,2-3.85,3,1.26.53,2.49,1.47,3.78,1.54,10.67.6,21.56.39,30.73,7.09,3.7,2.71,6.86,6.15,10.27,9.26-7.72,2.74-14.84,5.16-21.86,7.85-1.55.59-2.72,2.14-4.06,3.25,1.61.47,3.2,1,4.84,1.4,8.77,2,17.49,4.22,23.64,11.55,2.2,2.62,4.1,5.49,6.15,8.26-6.05,0-11.69-.15-17.32.11-1.49.07-2.92,1.4-4.38,2.15.73,1.16,1.39,2.38,2.2,3.48,2.48,3.33,5.06,6.6,7.53,9.95,9.69,13.12,19.49,26.15,29,39.42,5.93,8.3,12.39,16.4,14.73,26.72.17.75.18,1.54.32,2.84-4.09-1.92-7.72-3.73-11.45-5.31-1.07-.45-2.43-.22-3.65-.31a15.23,15.23,0,0,0,.35,3.41c2.82,8,6,15.91,8.49,24,1,3.42.57,7.3-.09,11.23-3.49-4.41-7-8.82-10.46-13.25-.32-.4-.34-1.16-.72-1.39-1.27-.77-2.64-1.37-4-2a20.32,20.32,0,0,0-.93,4c-.12,4.1.38,8.27-.12,12.31-1.48,11.81-6.71,22.38-11.81,34.19-4.16-8.86-8.44-16.64-19.23-17l.4-1.36c2.86-.56,5.71-1.18,8.59-1.66,1.17-.19,2.52.24,3.58-.16a16.61,16.61,0,0,0,3.41-2.35c-.74-1-1.29-2.48-2.27-2.87-4.66-1.87-9.32-4.14-14.2-5-8.85-1.5-17.87-2.08-27.33-3.09,5.22-3.79,10.57-7.81,16.09-11.58,1.44-1,3.4-1.2,2.48-3.64s-2.56-2.57-4.79-2c-11.55,3.13-22,8.55-32.45,14.34-11,6.08-22.16,11.84-33.65,16.82-10.07,4.36-20.74,6.93-32,5.43-5.86-.79-8.22-5.25-10.28-9.63-1.37-2.9-1.69-6.44-1.87-9.73a137.64,137.64,0,0,1,5.06-44.73c2.91-10.46,4.22-21.28,1.28-32.11a71.17,71.17,0,0,0-2.88-8.68,3.14,3.14,0,0,0-2.58-1.58A4.68,4.68,0,0,0,322,421.3c-2.27,4.73-4.37,9.54-6.52,14.33l-1.15-.43c-.42-5.23-.86-10.46-1.25-15.7a64.72,64.72,0,0,0-7.5-25.12c-5.3-10.29-10.09-20.84-15.17-31.23-.43-.88-1.46-2.08-2.17-2a4.59,4.59,0,0,0-3.3,1.6c-9.62,15.11-16.75,31.27-20.1,49-.5,2.61-1.08,5.2-1.66,8-1.44-2.22-2.63-4.31-4.07-6.2-.79-1-2.26-2.65-3-2.44a5.62,5.62,0,0,0-3.29,3c-5.05,13.92-4.53,28.15-3.05,42.68,1.27,12.38,6.41,23.6,8.71,35.59a121.15,121.15,0,0,1,2.05,21.09c.1,7.78-3.52,10-11.1,8.56-8.6-1.66-14.25-7.33-19.74-13.21,5.68.33,11.27.72,16.87.95,4.12.16,6.53-1.92,7.76-6a37.24,37.24,0,0,0,.5-18.57c-1.76-8.35-4.37-16.39-9.07-23.7C238,449.27,227,442,213,439.1c-5.87-1.23-11.78-2.26-16.59-6.45-1-.82-3.75-1-4.43-.28a5.94,5.94,0,0,0-1.2,4.88c2.18,7.67,4.91,15.18,7.09,22.84,1.27,4.45,1.58,9.18,2.86,13.63,1,3.36,2.79,6.48,3.92,9-3.64-1.4-7.73-3.66-12.08-4.48-4.87-.92-10-.66-15-.64-.93,0-2.17,1.17-2.65,2.11a2.87,2.87,0,0,0,1,2.59c6,3.6,7.5,10.15,11.21,16.69-7.31-3-13.82-2.51-20.4-1.16-3.31.69-4.21,1.81-2.59,4.74,3.18,5.71,2.8,11.32-.24,18-2.53-8.24-3.79-15.7-3.48-23.36.62-15.45,6.39-29.36,13.36-42.82,1.49-2.89,4.12-5.17,6-7.88a18.41,18.41,0,0,0,1.65-4.17c-1.54.39-3.58.29-4.52,1.26-5.47,5.66-10.68,11.58-16,17.39-.51.56-1.12,1-1.68,1.53l-1.13-.44c1.35-5.56,2.36-11.23,4.12-16.66,5.16-16,10.8-31.79,15.88-47.79,2.52-7.94,3.53-16.39,6.45-24.15,3.86-10.22,11.09-18.15,20.15-24.35.94-.64,1.46-1.91,2.17-2.89-1.23-.37-2.51-1.14-3.7-1-5.51.56-11,1.36-16.5,2.08l-.58-1.06c2.81-2.29,5.41-5,8.5-6.79,3.66-2.16,7.77-3.53,11.63-5.35a10.35,10.35,0,0,0,2.18-1.93c-.7-.7-1.28-1.8-2.11-2-2.74-.8-5.56-1.28-8.82-2,3.64-5.19,8.74-7.36,13.77-9.14a116.68,116.68,0,0,1,18.85-4.94c3.5-.61,7.28.38,10.93.66,2.57.19,5.27,0,5.59-3.08.17-1.52-1-4.06-2.21-4.67a35.43,35.43,0,0,0-9.18-2.62c-10.63-1.89-21.3-3.59-31.94-5.4a54.58,54.58,0,0,1-27.79-13.27,16.69,16.69,0,0,0-10.87-4.14c-.89,0-2.66,2-2.71,3.1-.72,15-2.11,30-1.44,44.9.49,11.06,5.18,21.47,10.8,31.19,2.59,4.48,5.39,8.94,7.15,13.75.84,2.29-.53,5.39-.94,8.43-3.47-5.74-6.59-10.88-9.7-16-7-11.55-12.2-23.86-13.18-37.4-.86-12-.91-24-.74-36a34.77,34.77,0,0,1,3-13.1c1-2.19,4.18-4.69,6.49-4.8,19-.92,38-1.79,56.94-1.73,22.58.07,45.17,1.07,67.71,1.67-6.07,5.08-12.55,9.78-18.14,15.37-6.19,6.21-11.64,13.18-17.22,20a2.7,2.7,0,0,0,3.81,3.81c8.68-7,18.9-11.1,29.17-14.8,8.2-2.95,16.83-4.72,25.57-7.09.31-2.32-.94-3.59-3.89-2.86-15.54,3.84-30.9,8.19-44.91,16.26-.08.05-.22,0-1-.12,2.94-3.41,5.34-6.93,8.45-9.63,8.46-7.34,16.59-15.23,26.92-20,3.54-1.63,7.57-2.17,11.24-3.58,1.6-.63,2.85-2.19,4.25-3.33-1.47-1-2.82-2.37-4.45-2.91-3.89-1.29-7.95-2.08-11.87-3.29-4.17-1.28-8.27-2.8-12.74-4.34,7.86-3.74,15.91-4.22,24-4.05,7.35.16,14.63.7,21.5,3.83,2.34,1.06,3.72,0,3.72-2.81,0-6.8-3.75-12.09-6.76-17.7a26.41,26.41,0,0,0-1.84-2.54Zm2.41,263.39c1.09,5.16,2.14,10.34,3.29,15.49.69,3.08,2.93,4.07,5.85,4,2.28,0,4.64-.34,6.81.14,10.44,2.3,20.05-1.26,28.84-5.55,6.87-3.35,12.88-9.08,18.26-14.73a130.29,130.29,0,0,0,24.46-36.84c3.57-8,3.61-8.28-5.29-8.26a13.46,13.46,0,0,0-2,.08c-14.85,2.11-29.68,4.48-44.56,6.31C342.13,461.38,326.87,478.5,326.82,498.2Z"/>
<path fill="#FFFFFF" stroke="#000000" stroke-width="1.6368" stroke-miterlimit="10" d="M374.69,712.59c.65-9.42,1.62-18.83,1.8-28.26.09-4.86-1.11-9.78-2-14.61-.2-1.08-1.64-1.93-2.52-2.89-.87,1-2.26,1.82-2.54,2.94-4.61,18.21-9.09,36.46-13.58,54.7-5.6,22.76-10.07,45.84-19.52,67.49-1.48,3.39-3.07,6.73-4.8,10.5-1.14-6.63-2.22-12.8-3.26-19-.29-1.72.39-4.15-2.51-4-2.26.1-2.9,1.32-3.21,3.87-.83,6.86-2.45,13.62-3.87,20.39-2.93,13.95-5.94,27.88-8.94,41.82a16.47,16.47,0,0,1-1,2.41c-2.4-3.33-4.95-6.21-6.76-9.49-6.44-11.62-15.2-21.52-23-32.17a88.44,88.44,0,0,1-12.9-25.18c-5.48-17.5-9.8-35.39-13.76-53.3-1.41-6.33-.28-13.21-.53-19.83,0-1.18-1.16-2.32-1.78-3.48-1.31.89-3.32,1.49-3.82,2.71-3.44,8.38-6.76,16.82-9.73,25.38-2.24,6.47-3.91,13.14-5.7,19.27-17-36.77-10.83-72.77,6.89-108.15L236,642.63c-1.67.83-3.86,1.23-4.91,2.54q-11.82,14.7-23.22,29.74c-1.93,2.53-3.32,5.47-5.87,8.11.28-2.45.46-4.92.85-7.36,2-12.5,3.21-25.18,6.17-37.44,3.94-16.34,11.84-31.17,20.41-45.57.34-.58.8-1.08,1.15-1.65,4.31-7.15,4.37-7.28,12-3.5a125.36,125.36,0,0,1,27,18.1c7.21,6.34,16.48,8.5,26.24,7.63,13-1.17,24.31-6.56,35.09-13.57,3.07-2,6.68-3.45,9.71-1.34,1.54-.71,2.58-1.61,3.61-1.59,7,.12,13.93.65,20.9.62q12.84-.08,25.66-.9c3.24-.21,6.41-1.47,9.49-2.23,3.42,21.94,1.2,43.59-3.83,64.58C391.93,677.6,383,695.09,374.69,712.59Z"/>
<path fill="#FFFFFF" stroke="#000000" stroke-width="1.6368" stroke-miterlimit="10" d="M722,237c-9.64,6.94-19.22,14-28.93,20.81a187.72,187.72,0,0,0-43,41.74c-.71,1-1.68,2-1.87,3.05a18.65,18.65,0,0,0,.26,4.51c1.36-.4,3-.43,4-1.28,10.57-9.24,21.19-18.42,33.61-25.14,3.57-1.92,7.49-3.19,11.9-5-8.52,8.55-16.75,16.17-24.2,24.49-6.91,7.73-13.88,15.66-19.18,24.49-6.11,10.2-10.56,21.41-15.42,32.32-1.53,3.45-2.2,7.32-2.92,11.06-.21,1.07.79,2.37,1.23,3.56,1.18-.47,2.87-.6,3.44-1.47,6.93-10.52,17.89-16.18,27.72-23.26-3.32,5.68-6.88,11.24-9.9,17.08-7.62,14.72-15.61,29.29-22.28,44.43a151.08,151.08,0,0,0-11.6,40.54c-.14,1,1.3,3.11,2.11,3.17a4.34,4.34,0,0,0,3.55-2c6.22-16.32,17.64-28.83,29.62-41a16.1,16.1,0,0,1,2.12-1.21C652.81,439.58,644,470.49,642.1,503c-3.75-.93-5.31.42-5.58,4.52a31.15,31.15,0,0,1-2.78,10c-5.18,12-7.45,24.7-9.92,37.39a17,17,0,0,1-1,2.46c-4.79-10-10.16-19.24-13.81-29.16s-5.48-20.25-8.16-30.6c-5.21,2-5.61,7.23-6.55,11.19-2.52,10.59-4,21.42-5.93,32.15a9.29,9.29,0,0,1-1.82,4.37c-2.43-8.67-5.16-17.28-7.25-26-4.05-17.08-6.54-34.38-6.19-52,.05-2.39.67-4.78.62-7.16,0-1.19-1-2.35-1.53-3.53-1.17.67-3.1,1.09-3.4,2-6.1,19.29-13.68,38.16-16.63,58.34-.82,5.54-1.39,11.11-2.21,17.74-2.07-10-4.13-19.08-5.78-28.24a149.94,149.94,0,0,1-1-49.16c1.54-10.26,3.36-20.48,4.9-30.74.17-1.14-.68-2.44-1-3.66-1.24.64-3,.95-3.63,2-5.63,9.61-10.41,19.57-12.23,30.72a53.06,53.06,0,0,1-3.17,11.28c0-3.58.05-7.16,0-10.73-.26-17.46,1.6-34.63,7.29-51.22A343.21,343.21,0,0,1,557,355.77c10.48-19.79,23.26-37.94,39.33-53.43,9.68-9.33,20.59-17.48,31.46-25.47,18.62-13.69,38.86-24.57,61-31.54,10.88-3.43,22-6.1,33-9.11C721.88,236.48,722,236.74,722,237Z"/>
<path fill="#FFFFFF" stroke="#000000" stroke-width="1.6368" stroke-miterlimit="10" d="M638.39,516.82c6.84,23,13.44,46,20.59,68.91,5.76,18.45,12.62,36.56,18.16,55.07,4.16,13.89,7.37,28.09,7.89,42.73.6,16.74-2.58,33-6.83,49q-7.82,29.55-16.55,58.85a140.4,140.4,0,0,1-18.51,39c0-5.08.07-9,0-12.89-.28-12-.13-24.08-1.06-36.06-1.55-19.82-6.26-38.9-15.53-56.7-5.6-10.75-10.34-22-16.47-32.42-8.27-14.05-17-28-30.32-38-3.3-2.48-7-4.38-10.31-6.9-1.76-1.36-3.74-3.26-4.28-5.27-4-15.07-7.42-30.29-11.46-45.34-2.69-10-6.33-19.83-9.12-29.85-4.77-17.12-9.72-34.22-13.56-51.56a99,99,0,0,1-2.19-27.5c.59-9.14,3.43-18.17,5.54-27.18,1.61-6.85,3.59-13.63,5.52-20.41a25.54,25.54,0,0,1,2-4.15c-1.34,12.4-3.6,24.79-3.77,37.2a214,214,0,0,0,3.06,36.14c1.88,11.8,5.25,23.36,8.05,35a10.74,10.74,0,0,0,2,4.34c.77.93,2.28,1.23,3.46,1.81.48-1.24,1.45-2.51,1.37-3.72-.29-4.52-1.36-9-1.35-13.52,0-14.94,3.44-29.32,7.88-43.49,1.9-6.08,3.86-12.13,6-18.83.74,7.93,1.13,15.18,2.13,22.34,3,21.55,7.25,42.81,16.45,62.76.33.72.19,1.77.67,2.26.84.83,2.24,2,3,1.8.93-.33,2.16-2,2-2.94-2.51-15.84,1.5-31,4.57-46.27a20.39,20.39,0,0,1,1.1-2.8c2.65,13.61,7.64,25.63,13.83,37.23,3.26,6.12,6,12.54,9.18,18.68.61,1.17,2.55,1.64,3.87,2.44a23.24,23.24,0,0,0,1.69-4.33c1.39-7.72,2.28-15.55,4-23.18s4.32-15,6.54-22.51Z"/>
<path fill="#FFFFFF" stroke="#000000" stroke-width="1.6368" stroke-miterlimit="10" d="M316.68,579c3.07-4.69,5.67-9,8.63-13a4.85,4.85,0,0,1,4-1.4q13.41,2.14,26.75,4.76c3.48.68,6.88,1.81,10.32,2.74.14-.51.29-1,.43-1.52-8-2.31-16-4.84-24.06-6.84A93.27,93.27,0,0,0,329.24,562c-2.06-.19-3.06-.72-3.28-3s-1.19-4.55-2.07-7.64L371,542.58c-16.63-.38-32.76,2.7-47.59,6.28l-5.53-3.67-1.32,5.45c-1.94.89-4.87,2.2-7.72,3.66a11.84,11.84,0,0,0,.63,2.6l10-3.43,2.18,7.77a73.16,73.16,0,0,0-8.64.11c-1.09.13-2,1.42-3.06,2.19,1.18.46,2.34,1.27,3.53,1.3a56,56,0,0,0,6.57-.54l.65,1c-2.53,3.3-5.06,6.6-8.65,11.26-1.2-2-1.77-3.4-2.79-4.39-.78-.77-2.11-1-3.2-1.42a22.52,22.52,0,0,0,1.22,3.58,17.43,17.43,0,0,0,2.42,2.73c-5.42,2.78-10.65,2.92-15.6.65-4.74-2.18-7.76-6-7.53-11.74.13-3.31,0-6.63,0-9.05,4.87-5,9.75-9.66,14.09-14.74a26.65,26.65,0,0,0,4.31-8.42c2.37-6.68-5.32-11.27-10.79-12-7.8-1-15.46.07-23,2-6,1.52-9.16,11.15-5,17.26,4,5.87,9.18,10.94,13.83,16.37a3.69,3.69,0,0,1,.91,1.55c1.26,6.85-7.62,17.07-14.58,16.49-6-.49-11.08-3.32-16-8.32,2.54-.45,4.42-.64,6.22-1.14a10.14,10.14,0,0,0,2.54-1.63c-1-.45-2.17-1.42-3.09-1.25a62.81,62.81,0,0,0-7.42,2.32c-.53-3.33-1-6.28-1.57-9.75,1.73,0,3.16-.1,4.57,0s2.77.52,4.15.79l.75-1-2.82-3.09.57.06c-.54-1.77-1.07-3.54-1.63-5.4l2.92-2.64c-1.35-.51-2.26-1.22-2.92-1-7.44,2.09-14.5-.9-21.69-1.64-10.45-1.06-20.8-1.53-31.1,1.6a125.48,125.48,0,0,1,45,3.61c-.41,1.18-.72,2.15-1.09,3.11s-.8,1.93-.95,2.29c-10.7,2.58-20.92,5.09-31.19,7.45a6.7,6.7,0,0,1-4.42-.31,80.71,80.71,0,0,1-28-26.5,50.48,50.48,0,0,1-7.65-20c-.54-3.67-1.59-7.26-2.4-10.86,4.77-2.57,13.25-1.11,18.11,2.66,1.33,1,3.43,1.06,5.18,1.56-.09-1.84.33-3.89-.35-5.46-2.68-6.16-5.71-12.16-8.89-18.83,3.1.2,6.62-.2,9.71.76,8.11,2.5,14.4,7.95,20.08,14.06,6.1,6.57,11.9,13.44,18.24,19.77,7.49,7.46,16.53,11.17,27.35,9.38,3.45-.56,6.38-1.76,6.39-5.79,0-7.44.57-15-.6-22.29-1.33-8.22-4.53-16.12-6.48-24.27-1.71-7.1-3-14.32-4.12-21.55a74.14,74.14,0,0,1,1.38-31,14.26,14.26,0,0,1,.67-1.83,13.87,13.87,0,0,1,1.11-1.52,58.13,58.13,0,0,1,2.86,6.4c1.29,4.2,2.12,8.54,3.57,12.67.42,1.21,2.31,1.89,3.52,2.82.62-1.23,2-2.72,1.73-3.63-3.07-9.14-.79-18,1.11-26.88a122.15,122.15,0,0,1,15.54-39.27c.35-.55.78-1.05,1.5-2,2.47,4.89,4.77,9.46,7.1,14,3.76,7.37,8.32,14.45,11.15,22.16,4.47,12.2,6.32,24.94,3.63,38-.19.93.51,2,.79,3.06,1.26-.36,3.05-.32,3.69-1.15,4-5.27,7.81-10.73,12-16.6.58,3.38,1.79,6.8,1.6,10.14-.49,8.23-.84,16.61-2.68,24.6-3.9,16.93-6,33.87-3.73,51.18,1.05,7.92,7,17.51,18.82,16.75,11.2-.72,22.12-2.27,32.19-7.18,15.93-7.78,31.61-16.1,47.42-24.14,2.09-1.06,4.34-1.79,7.35-3-5.07,4.56-9.5,8.36-13.66,12.44-1,.94-1,2.81-1.49,4.25,1.37.18,2.93.87,4.1.45,9.42-3.32,18.95-2.73,28.51-1,3.05.55,6,1.57,9,2.38,0,.34-.09.68-.13,1-3.44,1.38-6.94,2.65-10.31,4.2-1.17.54-2,1.75-3,2.65,1.23,1,2.32,2.4,3.73,2.93,4.76,1.8,9.62,3.29,14.68,5-4.79,14.5-11,26.89-22.18,36.12-6.06,5-12,10.54-18.92,14a94.37,94.37,0,0,1-36.81,10c-11.59.67-23.24.07-34.86.22-2.57,0-5.11,1-7.68,1.31-1.13.15-2.6.29-3.41-.28C327.78,587.17,322,582.85,316.68,579Z"/>
<path fill="#FFFFFF" stroke="#000000" stroke-width="1.6368" stroke-miterlimit="10" d="M266.56,928.81a126.91,126.91,0,0,1-5.79-35,16.69,16.69,0,0,0-.06-3.61,19.07,19.07,0,0,0-1.72-3.52c-1.2.92-3,1.58-3.5,2.79-1.94,4.66-3.46,9.49-5.16,14.25-.56,1.56-1.18,3.1-1.77,4.62-1-9.65-2.06-19.16-3-28.67-.34-3.31-.35-6.65-.82-9.93-.14-1-1.3-1.82-2-2.73-.94.85-2.5,1.57-2.73,2.58-1.33,5.83-2.34,11.74-3.49,17.61-.07.34-.43.62-1.09,1.5-.36-4-.51-7.47-1-10.88q-1.5-10.46-3.36-20.86c-.22-1.22-1.29-2.29-2-3.43-1.21.92-2.46,1.79-3.59,2.79-.28.24-.18.93-.63,1.39-.32-5.24-.75-10.47-.93-15.72a429.09,429.09,0,0,0-5.67-56.09c-.87-5.12-1-10.36-1.72-15.51-.15-1.09-1.5-2-2.3-3-.86,1.21-2.33,2.35-2.46,3.62-.54,5.7-.7,11.44-1,17.16l-1.22.37c-2.06-6.46-4.37-12.85-6.15-19.39-4.23-15.54-8.69-31-12.11-46.79-2.14-9.84-2.49-20.06-3.85-30.09-.21-1.52-1.56-2.89-2.38-4.33-1,1.37-2.78,2.62-3,4.13-1,6-1.62,12.16-2.41,18.55-3.57-4.85-11.39-34.56-13.81-50.26-2.73-17.66.05-35.17.9-52.72s6.53-34.16,12.45-51.29c12.06,8.82,24.38,16.3,38.33,21.29L197.16,589.1l.72,1.37c4.06-2.08,8.1-4.21,12.18-6.25,3.1-1.56,6.18-3.19,9.41-4.43,1.15-.44,2.77,0,4.08.36,2.41.71,4.74,1.68,7.76,2.79-2.92,5.09-5.95,9.9-8.51,14.94C216,611.2,208.71,624.31,205.1,639c-1.44,5.8-2,11.81-3,17.72-1.19,7.09-2.78,14.13-3.5,21.27-.42,4.13.37,8.42.95,12.6.14,1,1.84,2.58,2.44,2.42a5.42,5.42,0,0,0,3.07-2.59c3.21-6.22,5.73-12.85,9.41-18.75,3.87-6.2,8.78-11.74,13.68-17.29-1.8,5.78-3.8,11.52-5.35,17.37-2,7.59-4,15.22-5.39,22.94-2.28,12.58-.8,25.06,2.48,37.29,2.73,10.16,5.85,20.22,9,30.26.37,1.17,2.08,1.92,3.16,2.87.72-1.07,2-2.11,2.07-3.21.67-15.21,5.4-29.32,11.34-43.12a3.56,3.56,0,0,1,1.09-1.5c.79,15.08,5.06,29.37,8.6,43.8a170,170,0,0,0,23.34,53.69c6.19,9.37,10.46,20,15.21,30.31a90.54,90.54,0,0,1,8.54,30.26,121.4,121.4,0,0,1-.12,21.23c-1.08,12-2.75,23.85-4.37,35.75-.69,5.11-1.87,10.15-2.83,15.22l-1.29.25c-1.6-5-3.77-10-4.68-15.13-2.19-12.46-3.82-25-5.58-37.54-.24-1.69.32-3.49.15-5.2a19.8,19.8,0,0,0-1.23-4c-1.16.94-2.94,1.65-3.4,2.86-2.75,7.23-5.38,14.52-7.68,21.91C269.44,916.47,268.17,922.46,266.56,928.81Z"/>
<path fill="#FFFFFF" stroke="#000000" stroke-width="1.6368" stroke-miterlimit="10" d="M304.64,221.23c-1.7,1.39-4.6,2.66-4.65,4-.11,3-.44,6.4,3.47,8.59,3.48,1.94,6.08,5.44,9.64,8.79a17.36,17.36,0,0,1-3.68.38c-17.78-2.58-35.15.1-52.29,4.48-1.91.49-3.84,3.36-4.54,5.52-.78,2.45,1.27,4.06,3.82,4.61a4.79,4.79,0,0,1,2.55,1.5c-4.36,0-8.72.09-13.07,0-10.26-.25-20.52-.78-30.78-.83-16.88-.09-33.76.33-50.63,0-4.39-.08-8.42-.33-11.93,2.61a14.86,14.86,0,0,0-2.85,3.18c-8.17,12.44-10.4,26.67-12,41-2.42,21.84,3.42,42,12.81,61.46,3.19,6.61,5.95,13.43,8.85,20.19a44.14,44.14,0,0,1,1.3,4.54c-11.38,0-22.2-.58-32.94.14-16.51,1.1-33,2.89-49.41,4.88-3.41.42-4.54-.76-5-3.26-1.5-8.39-3.23-16.78-4-25.25-2-22.2,2.61-43.32,11.61-63.52,8.23-18.49,17.67-36.25,32.32-50.7A145.17,145.17,0,0,1,162,222c18-7.17,36.84-10.64,55.69-14.22,7.17-1.36,14.44-2.71,21.7-2.93,6.71-.2,13.5.91,20.2,1.85,11.79,1.65,23.37,4.3,34.32,9.12C297.77,217.51,301.46,219.61,304.64,221.23Z"/>
<path fill="#FFFFFF" stroke="#000000" stroke-width="1.6368" stroke-miterlimit="10" d="M458.31,983.12c-6.36,2.29-12.46,1.12-18.29-1.87-12.84-6.58-14.84-15.86-13.86-29.67.39-5.55.95-11.31,5.71-15.4.36-.3.27-1.68-.11-2.11s-1.78-.65-2.07-.34c-2.09,2.24-4.83,4.32-5.84,7-4.06,10.9-3.76,22,.22,33.11-8.39,2.88-15.27.16-21-5.78-5.23-5.42-6-11.83-3.3-18.9a51.17,51.17,0,0,0,2.52-10c1.3-7.7,3.26-9.66,11-11.69,9.42-2.47,19-4.6,28-8.14,8.69-3.41,17.16-7.46,26.57-7.91,8.08-.39,16.35-.67,24.29.55,13.27,2,26.27,5.95,39.55,7.88,8.74,1.26,17.78.43,26.69.53h4.13c-4.12,3.92-7.5,7.21-11,10.41-8.24,7.61-16.61,15.08-24.74,22.82-3.17,3-5.81,6.6-8.71,9.92-8,9.19-18.15,15.65-29,20.67-8.27,3.82-17.09,3.23-24.42-3-7.12-6-8.16-14.15-5.73-22.65a97.82,97.82,0,0,1,5.59-13.71c.68-1.48,2.22-2.54,3.24-3.88a12.43,12.43,0,0,0,1.13-2.35c-.93-.37-1.88-1.07-2.78-1a3.94,3.94,0,0,0-2.73,1.38c-6.65,10.42-12.11,21.28-9.4,34.2C454.73,976.49,456.71,979.5,458.31,983.12Z"/>
<path fill="#FFFFFF" stroke="#000000" stroke-width="1.6368" stroke-miterlimit="10" d="M243.82,890.7c0,10-.09,20.08.11,30.11,0,1.28,1.51,2.53,2.32,3.8,1.08-1.13,2.75-2.07,3.15-3.41,2.16-7.06,4-14.23,5.95-21.36l1,.15c.95,5.9,1.48,11.91,2.95,17.68,1.86,7.33,4.36,14.52,6.91,21.65.41,1.14,2.53,1.67,3.85,2.49.42-1.38,1.36-2.83,1.17-4.12-2.16-14.44,2.91-27.46,7.29-40,1.82,10.88,3.38,22.31,5.76,33.57,1.34,6.34,3.77,12.49,6.18,18.55,3.24,8.16,4.36,16.56,1.55,24.79-2.42,7.12-7.61,13.06-14.9,15.12a159.36,159.36,0,0,1-30.9,6c-14.71,1.14-25.36-9.62-22.16-26.64,1.57-8.32,6.12-14.93,12.34-20.45,1-.87,2.59-1,3.84-1.61,1-.5,2-1.19,3.4-2.08-3.26-2.37-5.85-2.3-8.21-.35-11.29,9.31-17.55,21-16.4,36,.17,2.18,1.11,4.31,1.89,7.16-7.39-1.62-15.66-.6-19.18-8.61-1.83-4.17-1.88-9.29-2.05-14-.47-12.87,5.55-22.49,15.94-29.56,2.11-1.43,4.64-2.25,7.41-3.56-1.38-2.9-3.76-2.38-5.84-1.28A42.89,42.89,0,0,0,199,948.28c-4.67,8.5-3.46,17.8-4,26.84-8.42-6.34-12.07-19.08-8.56-30.37,3.76-12.09,12.79-18.9,24.28-22.14,4-1.12,9,.27,13.22,1.45,6.79,1.87,7.44,1.87,9.41-4.61,2.77-9.09,5.47-18.2,8.22-27.29a9.77,9.77,0,0,1,.89-1.69Z"/>
<path fill="#FFFFFF" stroke="#000000" stroke-width="1.6368" stroke-miterlimit="10" d="M385.67,962.94c-.1-14.82-7.14-24.8-19.16-31.67-1.57-.89-3.49-2.49-4.66.05-.28.59,1.67,2.82,3,3.46,14.1,6.88,21.1,27.5,11.3,39.45-5.68,6.92-19.2,15.06-29,16.75a24.43,24.43,0,0,1,1.5-3.64c6-9.62,1.68-29.52-8.27-34.65-2.67-1.37-2.86-1.58-5.91,1.54a25.93,25.93,0,0,0,2.71,1.67c8.29,3.93,9.27,11.66,9.34,19.31.17,17.39-17.17,23.3-30,20.46-9.08-2-15.63-11.46-15.47-21.93.15-9.36.93-18.71,1.61-28,.65-8.8,1.55-17.58,2.36-26.37a22.73,22.73,0,0,1,.85-3c2.89,10.53,5.4,19.93,8.13,29.27.38,1.32,1.82,2.34,2.77,3.5.65-1.41,1.88-2.84,1.85-4.23-.37-17.37,2.68-33.95,11.32-50.57.61,4.36.81,7.73,1.58,11q3.46,14.57,7.41,29a3.34,3.34,0,0,0,2.79,1.75c.92-.22,2.34-1.89,2.18-2.61-3.4-14.91,2.53-28.08,7.56-41.4,1.83-4.85,3.92-9.59,6.34-15.47.43,6.4.36,11.7,1.23,16.84,1.47,8.64,3.48,17.18,5.44,25.73.17.74,1.69,1.17,2.59,1.74.7-1.11,2.17-2.35,2-3.32-1.94-11.47,1-22.26,4.22-33a1.88,1.88,0,0,1,.9-1.26c-.35,2.46-.58,4.94-1.07,7.37-1.85,9.15,2.52,15.64,9,21.24a24.86,24.86,0,0,0,3.24,2.33c13.28,8.23,14.12,21.36,10.08,32.13C393.28,952.25,391,958,385.67,962.94Z"/>
<path fill="#FFFFFF" stroke="#000000" stroke-width="1.6368" stroke-miterlimit="10" d="M545.35,632.11c-9.83-5.28-19.6-10.42-29.26-15.75-17.43-9.62-27.18-25.65-35.08-43-4.9-10.77-5.42-21.66.28-32.65,3.35-6.44,5.63-13.43,8.86-21.31,3.15,5.81,5.92,11,8.82,16.21a17.39,17.39,0,0,0,2.52,2.8c1-1,2.78-1.93,3-3.09,2.11-12.95,3.26-26,1.94-39.11a7,7,0,0,1,.5-1.5c3.12,4.69,7.48,7.19,7.83,13.92,1.42,27.16,7.59,53.47,16.43,79.19C536.11,602.27,540.51,616.94,545.35,632.11Z"/>
<path fill="#FFFFFF" stroke="#000000" stroke-width="1.6368" stroke-miterlimit="10" d="M621.25,883.81c4.22-5,8.5-10,12.63-15.11,3.94-4.86,7.62-9.94,11.66-14.72a5.71,5.71,0,0,1,4.26-1.85c16.41,1.88,32.78,4,49.17,6,8.35,1,16.73,1.75,25.11,2.53a168.13,168.13,0,0,1,17.17,2.1L622,885Z"/>
<path fill="#FFFFFF" stroke="#000000" stroke-width="1.6368" stroke-miterlimit="10" d="M500.22,330c-3.44,29.84-9.73,58.31-20.67,86.48-4-5.65-7.54-10.69-11.1-15.72L469,400a30.92,30.92,0,0,1,3.52,1.71c3,1.89,6.12,2.55,8.78,0,1.28-1.23,2.54-3.94,2-5.36-4.44-12.83-10.94-24.27-23.31-31.24a13.2,13.2,0,0,1-1.38-1.62c3.75.79,6.41,1.48,9.11,1.89a60.44,60.44,0,0,0,6,.36c-.2-2.11.16-4.48-.7-6.27-4.2-8.73-7.48-12.43-15.4-18.45Z"/>
<path fill="#FFFFFF" stroke="#000000" stroke-width="1.6368" stroke-miterlimit="10" d="M233.56,573.28c3.73-1.52,6.49-3,9.44-3.71a6.44,6.44,0,0,1,4.83,1.14c5.19,4.11,10.44,7.45,17.35,8.48,3.3.49,6.42,3.72,9.14,6.23,3.47,3.19,10.08,4.81,13.94,2.11,5-3.49,10.18-5.5,16.34-4.59a4.59,4.59,0,0,0,3.09-.5c4.32-3.26,7.82-1.35,11.48,1.29,4.41,3.19,9,6.11,13.69,9.25-11.77,7.8-23.41,15.33-37.51,16.31-9.81.68-18.76-1.78-25.23-10.61a62.57,62.57,0,0,0-27.6-21.18C239.72,576.37,237.05,574.94,233.56,573.28Z"/>
<path fill="#FFFFFF" stroke="#000000" stroke-width="1.6368" stroke-miterlimit="10" d="M287.19,524.19c3.59,1.18,7.2,2.3,10.76,3.56,2.87,1,2.84,3.43,2.07,5.64a33.2,33.2,0,0,1-15,18c-2,1.2-4.22,1.71-6-.82-3.12-4.56-6.45-9-9.48-13.6-1.54-2.36-.61-4.55,1.32-6.44C275.36,526.08,281,525.13,287.19,524.19Z"/>
<path fill="#FFFFFF" stroke="#000000" stroke-width="1.6368" stroke-miterlimit="10" d="M193.77,317.13c-4,2-7.17,3.51-10.31,5.18a13.88,13.88,0,0,0-4.19,2.9c-.89,1.05-1.74,3-1.33,4.05.52,1.34,2.19,2.46,3.62,3.16,1.11.54,2.61.29,4.78.46L173,349.72c-6.6-14.21-6.4-29.32-1.49-45.43Z"/>
<path fill="#FFFFFF" stroke="#000000" stroke-width="1.6368" stroke-miterlimit="10" d="M235.92,462.68c-6.9-1.07-14.63,2.65-16.77,8.63-3,8.35-.25,16.3,6.56,19,6.24,2.5,14.41,1.6,18.58-9.15,4.35,7.82,1.77,14.28-6.78,17.95-6.06,2.6-11,1.46-15.66-3-4.44-4.29-8.51-8.57-9.69-15.14-1.67-9.27,1.89-18.74,9.75-22.73a8.58,8.58,0,0,1,6.21,0C230.89,459.25,233.34,461.15,235.92,462.68Z"/>
<path fill="#FFFFFF" stroke="#000000" stroke-width="1.6368" stroke-miterlimit="10" d="M540.21,345.41c0-8.47,0-16.58,0-24.69,0-2.52.91-3.22,3.44-3.66,8.11-1.41,16.13-3.32,24.83-5.17C563,318.71,557.88,325,553,331.45a86.85,86.85,0,0,0-6.62,10.48C544.81,344.79,542.76,346,540.21,345.41Z"/>
<path fill="#FFFFFF" stroke="#000000" stroke-width="1.6368" stroke-miterlimit="10" d="M242.18,554.93c.7,4.09,1.33,7.07,1.65,10.08.08.78-.72,1.7-1.24,2.47-.16.23-.83,0-1.13.25-11.49,7.77-20.16-.13-29.36-5l-.18-1.2Z"/>
<path fill="#FFFFFF" stroke="#000000" stroke-width="1.6368" stroke-miterlimit="10" d="M512.5,459.32c-2.41-4.43-5.45-9.94-8.4-15.5-.45-.85-1-2.14-.66-2.83,4.61-9.68,9.37-19.29,14.28-29.3C515.89,428.34,514.13,444.45,512.5,459.32Z"/>
<path fill="#FFFFFF" stroke="#000000" stroke-width="1.6368" stroke-miterlimit="10" d="M205.29,474c-1.47-9-2.93-18.08-4.52-27.87l19.45,7.75c-8.06,5-13.29,11-13.51,20.21Z"/>
<path fill="#FFFFFF" stroke="#000000" stroke-width="1.6368" stroke-miterlimit="10" d="M288.87,580.81c-6.48,5.39-7.9,5.12-14.33-2.85l7.18-6.05Z"/>
<path fill="#FFFFFF" stroke="#000000" stroke-width="1.6368" stroke-miterlimit="10" d="M301.51,1007.09c-3.49-.19-7.29-.39-11.09-.62a55.29,55.29,0,0,1-11.46-1.6l12.26-6.06Z"/>
<path fill="#FFFFFF" stroke="#000000" stroke-width="1.6368" stroke-miterlimit="10" d="M187.23,355l-7.57,10.81c-1.29-3.36-2.43-6.29-3.73-9.66Z"/><path fill="#FFFFFF" stroke="#000000" stroke-width="1.6368" stroke-miterlimit="10" d="M248.45,496.42c.71,9,.16,9.44-11,8.27Z"/>
<path fill="#FFFFFF" stroke="#000000" stroke-width="1.6368" stroke-miterlimit="10" d="M237.71,473.74c-.16,2-.3,3.81-.49,6.3l-7.66-1C229.87,473.36,230.94,472.69,237.71,473.74Z"/>
<path fill="#FFFFFF" stroke="#000000" stroke-width="1.6368" stroke-miterlimit="10" d="M675.56,334,661,340.87C663.64,332.75,670.31,334.63,675.56,334Z"/>
<path d="M326.82,498.2c.05-19.7,15.31-36.82,35.65-39.31,14.88-1.83,29.71-4.2,44.56-6.31a13.46,13.46,0,0,1,2-.08c8.9,0,8.86.3,5.29,8.26a130.29,130.29,0,0,1-24.46,36.84c-5.38,5.65-11.39,11.38-18.26,14.73-8.79,4.29-18.4,7.85-28.84,5.55-2.17-.48-4.53-.15-6.81-.14-2.92,0-5.16-1-5.85-4C329,508.54,327.91,503.36,326.82,498.2ZM351.46,474c-7.73,4.88-13.73,10.89-11.74,21.16a39.08,39.08,0,0,0,2.74,8.24c2.51,5.67,12.5,11.18,18,9.15,10.7-3.94,21.35-8.39,25.24-20.76,2.4-7.65,2.74-15.27-1.6-22.36-1.05-1.71-3.4-3.95-4.93-3.8-5.49.56-10.89,2-16.67,3.25,12.21,3.79,14.14,6.25,14.17,17.6,0,5.8-4.32,11.55-10,13.35-5.25,1.66-13.66-1.54-17.3-6.58S346.63,480.8,351.46,474ZM387,465.32c5.23,6.67,6,14.41,4.82,23.68,7.73-9.66,13.84-18.72,17.25-28.53Zm-39.49,49c-7.16-3.42-10.54-9.75-13.09-16.79-.38,4.58-3.63,9-.13,13.48S343.07,512.79,347.49,514.28Zm22.32-34.17c-3.75-1.44-5.78,0-6.82,2.78-.21.57,1.1,2.42,1.87,2.52C368.6,485.89,368.52,482.62,369.81,480.11Z"/>
<path fill="#FFFFFF" stroke="#000000" stroke-width="1.6368" stroke-miterlimit="10" d="M351.46,474c-4.83,6.84-5.72,14.24-2.09,19.25s12.05,8.24,17.3,6.58c5.72-1.8,10.05-7.55,10-13.35,0-11.35-2-13.81-14.17-17.6,5.78-1.21,11.18-2.69,16.67-3.25,1.53-.15,3.88,2.09,4.93,3.8,4.34,7.09,4,14.71,1.6,22.36-3.89,12.37-14.54,16.82-25.24,20.76-5.54,2-15.53-3.48-18-9.15a39.08,39.08,0,0,1-2.74-8.24C337.73,484.85,343.73,478.84,351.46,474Z"/>
<path fill="#FFFFFF" stroke="#000000" stroke-width="1.6368" stroke-miterlimit="10" d="M387,465.32l22.07-4.85c-3.41,9.81-9.52,18.87-17.25,28.53C393,479.73,392.21,472,387,465.32Z"/>
<path fill="#FFFFFF" stroke="#000000" stroke-width="1.6368" stroke-miterlimit="10" d="M347.49,514.28c-4.42-1.49-9.74,1.13-13.22-3.31s-.25-8.9.13-13.48C337,504.53,340.33,510.86,347.49,514.28Z"/>
<path fill="#FFFFFF" stroke="#000000" stroke-width="1.6368" stroke-miterlimit="10" d="M369.81,480.11c-1.29,2.51-1.21,5.78-4.95,5.3-.77-.1-2.08-2-1.87-2.52C364,480.08,366.06,478.67,369.81,480.11Z"/>
</g>
<g id="_2">
</g>
</svg>